<svg width="634" height="462" viewBox="0 0 634 462" fill="none" xmlns="http://www.w3.org/2000/svg">
<path d="M129.728 -69.7624C129.728 -69.7624 3.14006 122.271 200.06 221.048C396.979 319.826 548.059 400.305 631.475 293.164C714.891 186.023 697.175 7.05152 510.106 -138.594C323.038 -284.24 129.728 -69.7624 129.728 -69.7624Z" fill="#D5A594"/>
<path d="M117.728 -114.762C117.728 -114.762 83.2839 -62.511 78.2792 1.5C73.6895 60.2028 93.8589 128.796 188.06 176.048C384.979 274.826 536.059 355.305 619.475 248.164C702.891 141.023 685.175 -37.9485 498.106 -183.594C311.038 -329.24 117.728 -114.762 117.728 -114.762Z" fill="#AA4725"/>
</svg>
