<svg width="16" height="16" viewBox="0 0 16 16" fill="none" xmlns="http://www.w3.org/2000/svg">
<path d="M16 1.92798V13.178C16 13.8342 15.4844 14.303 14.875 14.303C14.2188 14.303 13.75 13.8342 13.75 13.178V4.64673L2.92188 15.4749C2.6875 15.7092 2.40625 15.803 2.125 15.803C1.79688 15.803 1.51562 15.7092 1.32812 15.4749C0.859375 15.053 0.859375 14.3499 1.32812 13.928L12.1562 3.05298H3.625C2.96875 3.05298 2.5 2.58423 2.5 1.92798C2.5 1.3186 2.96875 0.802979 3.625 0.802979H14.875C15.4844 0.802979 16 1.3186 16 1.92798Z" fill="#366EFF"/>
</svg>
