<svg width="1034" height="1247" viewBox="0 0 1034 1247" fill="none" xmlns="http://www.w3.org/2000/svg">
<path fill-rule="evenodd" clip-rule="evenodd" d="M199.43 512.21C99.7396 619.115 133.462 848.523 264.86 971.053C396.257 1093.58 547.934 1112.67 647.624 1005.76C698.163 951.565 802.357 902.379 808.039 774.411C813.722 646.442 738.313 599.505 673.529 539.093C542.131 416.563 299.12 405.306 199.43 512.21Z" stroke="#A4CBD0"/>
<circle r="160" transform="matrix(1 0 0 -1 745 1087)" fill="#E0CD98"/>
<circle r="160" transform="matrix(1 0 0 -1 763.286 1087)" fill="#C09A2D"/>
<path d="M368.728 272.238C368.728 272.238 242.14 464.271 439.06 563.048C635.979 661.826 787.059 742.305 870.475 635.164C953.891 528.023 936.175 349.052 749.106 203.406C562.038 57.7603 368.728 272.238 368.728 272.238Z" fill="#D5A594"/>
<path d="M356.728 227.238C356.728 227.238 230.14 419.271 427.06 518.048C623.979 616.826 775.059 697.305 858.475 590.164C941.891 483.023 924.175 304.052 737.106 158.406C550.038 12.7603 356.728 227.238 356.728 227.238Z" fill="#AA4725"/>
</svg>
