<svg width="128" height="100" viewBox="0 0 128 100" fill="none" xmlns="http://www.w3.org/2000/svg">
<path fill-rule="evenodd" clip-rule="evenodd" d="M57.4151 70.2107V73.9925C57.4151 84.4901 48.9051 93 38.4076 93C27.9101 93 19.4001 84.4901 19.4001 73.9925V21.7286C19.4001 17.071 21.0754 12.8046 23.8563 9.49918C24.2839 8.93854 24.7443 8.39653 25.2375 7.87601C32.6604 0.0413283 44.6952 0.0413295 52.1181 7.87601L73.4001 30.3388L94.6822 7.87601C102.105 0.0413295 114.14 0.0413283 121.563 7.87601C122.056 8.39653 122.516 8.9385 122.944 9.49913C125.725 12.8045 127.4 17.0709 127.4 21.7286V73.9925C127.4 84.4901 118.89 93 108.393 93C97.8952 93 89.3852 84.4901 89.3852 73.9925V70.2107L87.962 71.7128C83.9652 75.9314 78.6313 77.8784 73.4002 77.5541C68.169 77.8784 62.8351 75.9314 58.8382 71.7128L57.4151 70.2107Z" fill="#292929"/>
<rect x="9.40015" y="10.0032" width="38" height="88" rx="19" fill="white" stroke="#292929" stroke-width="2"/>
<path d="M79.4001 29.001C79.4001 18.5076 87.9067 10.001 98.4001 10.001C108.894 10.001 117.4 18.5076 117.4 29.001V79.001C117.4 89.4944 108.894 98.001 98.4001 98.001C87.9067 98.001 79.4001 89.4944 79.4001 79.001V29.001Z" fill="white" stroke="#292929" stroke-width="2"/>
<rect x="1.81436" y="28.2843" width="38" height="88" rx="19" transform="rotate(-45 1.81436 28.2843)" fill="white" stroke="#292929" stroke-width="2"/>
<path d="M84.9651 14.8492C92.3851 7.42928 104.415 7.42928 111.835 14.8492C119.255 22.2692 119.255 34.2993 111.835 41.7193L76.4798 77.0746C69.0599 84.4946 57.0297 84.4946 49.6098 77.0746C42.1898 69.6547 42.1898 57.6245 49.6098 50.2046L67.2874 32.5269L84.9651 14.8492Z" fill="white" stroke="#292929" stroke-width="2"/>
<path d="M19.3153 11.2452L30.0827 4.74051" stroke="#292929"/>
<rect x="87.4278" y="11.9331" width="12.5978" height="1.20347" rx="0.601737" transform="rotate(-33.0623 87.4278 11.9331)" fill="#292929"/>
<path d="M117.481 90.6909L110.374 94.9964L113.205 92.3718L117.481 90.6909Z" fill="#292929"/>
<path d="M47.2963 90.7794L40.5422 94.8929L43.1015 92.2301L47.2963 90.7794Z" fill="#292929"/>
</svg>
