<svg width="128" height="100" viewBox="0 0 128 100" fill="none" xmlns="http://www.w3.org/2000/svg">
<path fill-rule="evenodd" clip-rule="evenodd" d="M57.4151 70.2107V73.9925C57.4151 84.4901 48.9051 93 38.4076 93C27.9101 93 19.4001 84.4901 19.4001 73.9925V21.7286C19.4001 17.071 21.0754 12.8046 23.8563 9.49918C24.2839 8.93854 24.7443 8.39653 25.2375 7.87601C32.6604 0.0413294 44.6952 0.0413303 52.1181 7.87601L73.4001 30.3388L94.6822 7.87601C102.105 0.0413303 114.14 0.0413294 121.563 7.87601C122.056 8.39653 122.516 8.9385 122.944 9.49913C125.725 12.8045 127.4 17.0709 127.4 21.7286V73.9925C127.4 84.4901 118.89 93 108.393 93C97.8952 93 89.3852 84.4901 89.3852 73.9925V70.2107L87.962 71.7128C83.9652 75.9314 78.6313 77.8784 73.4002 77.5541C68.169 77.8784 62.8351 75.9314 58.8382 71.7128L57.4151 70.2107Z" fill="#FEF8EC"/>
<path d="M47.4001 29.0032C47.4001 18.5098 38.8936 10.0032 28.4001 10.0032C17.9067 10.0032 9.40015 18.5098 9.40015 29.0032V79.0032C9.40015 89.4966 17.9067 98.0032 28.4001 98.0032C38.8936 98.0032 47.4001 89.4966 47.4001 79.0032V29.0032Z" fill="#7DB3CD" stroke="#FEF8EC" stroke-width="2"/>
<path d="M79.4001 29.001C79.4001 18.5076 87.9067 10.001 98.4001 10.001C108.894 10.001 117.4 18.5076 117.4 29.001V79.001C117.4 89.4944 108.894 98.001 98.4001 98.001C87.9067 98.001 79.4001 89.4944 79.4001 79.001V29.001Z" fill="#7DB3CD" stroke="#FEF8EC" stroke-width="2"/>
<path d="M42.1194 14.8492C34.6995 7.42919 22.6693 7.42919 15.2494 14.8492C7.8294 22.2691 7.8294 34.2992 15.2494 41.7192L50.6047 77.0745C58.0247 84.4945 70.0548 84.4945 77.4748 77.0745C84.8947 69.6546 84.8947 57.6244 77.4748 50.2045L42.1194 14.8492Z" fill="#7DB3CD" stroke="#FEF8EC" stroke-width="2"/>
<path d="M84.9651 14.8491C92.3851 7.4292 104.415 7.4292 111.835 14.8491C119.255 22.2691 119.255 34.2992 111.835 41.7192L76.4798 77.0745C69.0599 84.4945 57.0297 84.4945 49.6098 77.0745C42.1898 69.6546 42.1898 57.6244 49.6098 50.2045L67.2874 32.5268L84.9651 14.8491Z" fill="#7DB3CD" stroke="#FEF8EC" stroke-width="2"/>
<path d="M19.3153 11.2452L30.0827 4.74048" stroke="#FEF8EC"/>
<path d="M97.4815 5.38865L87.9322 11.6048C87.6536 11.7861 87.5748 12.1589 87.7561 12.4374C87.9374 12.7159 88.3102 12.7947 88.5887 12.6134L98.138 6.39725C98.4166 6.21594 98.4954 5.84319 98.3141 5.56467C98.1328 5.28615 97.76 5.20734 97.4815 5.38865Z" fill="#FEF8EC"/>
<path d="M117.481 90.6909L110.374 94.9964L113.205 92.3718L117.481 90.6909Z" fill="#FEF8EC"/>
<path d="M47.2963 90.7794L40.5422 94.8929L43.1015 92.2301L47.2963 90.7794Z" fill="#FEF8EC"/>
</svg>
