<svg width="174" height="43" viewBox="0 0 174 43" fill="none" xmlns="http://www.w3.org/2000/svg">
<circle cx="21.5" cy="21.5" r="21.5" fill="#A4CBD0"/>
<path d="M60.45 8.908C61.014 7.648 62.004 7.018 63.42 7.018C64.464 7.018 65.274 7.372 65.85 8.08C66.402 8.752 66.678 9.688 66.678 10.888V16H64.536V10.888C64.536 10.24 64.38 9.754 64.068 9.43C63.756 9.094 63.318 8.926 62.754 8.926C62.19 8.926 61.728 9.172 61.368 9.664C61.008 10.156 60.816 10.9 60.792 11.896V16H58.668V10.888C58.668 10.24 58.512 9.754 58.2 9.43C57.888 9.094 57.45 8.926 56.886 8.926C56.322 8.926 55.836 9.178 55.428 9.682C55.032 10.186 54.822 10.942 54.798 11.95V16H52.674V7.252H54.528L54.762 8.764C55.338 7.6 56.262 7.018 57.534 7.018C58.266 7.018 58.872 7.186 59.352 7.522C59.844 7.858 60.21 8.32 60.45 8.908ZM75.5739 14.416C75.0219 15.58 74.1339 16.162 72.9099 16.162C71.3619 16.162 70.3419 15.556 69.8499 14.344C69.6699 13.924 69.5799 13.414 69.5799 12.814V7.234H71.7039V12.598C71.7039 13.174 71.8419 13.606 72.1179 13.894C72.3939 14.17 72.7299 14.308 73.1259 14.308C73.5339 14.308 73.8759 14.254 74.1519 14.146C74.4279 14.026 74.6679 13.852 74.8719 13.624C75.3159 13.108 75.5499 12.418 75.5739 11.554V7.234H77.6979V16H75.5739V14.416ZM86.7511 14.65C86.2111 15.718 85.3831 16.252 84.2671 16.252C83.1511 16.252 82.2151 15.826 81.4591 14.974C80.6791 14.086 80.2891 12.958 80.2891 11.59C80.2891 10.222 80.6611 9.112 81.4051 8.26C82.1371 7.432 83.0491 7.018 84.1411 7.018C85.2331 7.018 86.0551 7.456 86.6071 8.332V3.652H88.7491V16H87.0031L86.7511 14.65ZM84.5371 8.926C83.9371 8.926 83.4331 9.172 83.0251 9.664C82.6291 10.144 82.4311 10.792 82.4311 11.608C82.4311 12.424 82.6351 13.084 83.0431 13.588C83.4511 14.08 83.9671 14.326 84.5911 14.326C85.1071 14.326 85.5691 14.122 85.9771 13.714C86.3971 13.294 86.6071 12.766 86.6071 12.13V10.996C86.5831 10.372 86.3731 9.862 85.9771 9.466C85.6171 9.106 85.1371 8.926 84.5371 8.926ZM99.8777 8.908C100.442 7.648 101.432 7.018 102.848 7.018C103.892 7.018 104.702 7.372 105.278 8.08C105.83 8.752 106.106 9.688 106.106 10.888V16H103.964V10.888C103.964 10.24 103.808 9.754 103.496 9.43C103.184 9.094 102.746 8.926 102.182 8.926C101.618 8.926 101.156 9.172 100.796 9.664C100.436 10.156 100.244 10.9 100.22 11.896V16H98.0957V10.888C98.0957 10.24 97.9397 9.754 97.6277 9.43C97.3157 9.094 96.8777 8.926 96.3137 8.926C95.7497 8.926 95.2637 9.178 94.8557 9.682C94.4597 10.186 94.2497 10.942 94.2257 11.95V16H92.1017V7.252H93.9557L94.1897 8.764C94.7657 7.6 95.6897 7.018 96.9617 7.018C97.6937 7.018 98.2997 7.186 98.7797 7.522C99.2717 7.858 99.6377 8.32 99.8777 8.908ZM109.368 7.234H111.492V16H109.368V7.234ZM109.116 4.426C109.116 4.042 109.23 3.742 109.458 3.526C109.686 3.298 110.01 3.184 110.43 3.184C110.838 3.184 111.156 3.298 111.384 3.526C111.624 3.742 111.744 4.042 111.744 4.426C111.744 4.81 111.624 5.116 111.384 5.344C111.156 5.56 110.838 5.668 110.43 5.668C110.01 5.668 109.686 5.56 109.458 5.344C109.23 5.116 109.116 4.81 109.116 4.426ZM121.196 8.296C121.496 8.68 121.718 9.124 121.862 9.628C122.018 10.132 122.096 10.594 122.096 11.014C122.096 11.434 122.072 11.812 122.024 12.148H116.372C116.396 12.856 116.57 13.432 116.894 13.876C117.218 14.32 117.71 14.542 118.37 14.542C119.246 14.542 119.768 14.158 119.936 13.39H122.078C121.934 14.266 121.532 14.956 120.872 15.46C120.188 15.988 119.354 16.252 118.37 16.252C117.218 16.252 116.252 15.832 115.472 14.992C114.668 14.116 114.266 12.994 114.266 11.626C114.266 10.222 114.668 9.094 115.472 8.242C116.24 7.426 117.206 7.018 118.37 7.018C119.582 7.018 120.524 7.444 121.196 8.296ZM118.388 8.71C117.788 8.71 117.32 8.908 116.984 9.304C116.648 9.688 116.45 10.186 116.39 10.798H120.116C120.116 9.85 119.816 9.214 119.216 8.89C118.988 8.77 118.712 8.71 118.388 8.71Z" fill="#AA4725"/>
<path d="M56.004 28.018C56.556 28.018 57.048 28.114 57.48 28.306C57.924 28.486 58.296 28.726 58.596 29.026C59.196 29.602 59.55 30.328 59.658 31.204L57.516 31.258C57.42 30.874 57.24 30.556 56.976 30.304C56.724 30.052 56.43 29.926 56.094 29.926C55.758 29.926 55.47 29.98 55.23 30.088C54.99 30.184 54.78 30.34 54.6 30.556C54.192 31.06 53.988 31.756 53.988 32.644C53.988 33.532 54.18 34.204 54.564 34.66C54.948 35.104 55.41 35.326 55.95 35.326C56.502 35.326 56.898 35.2 57.138 34.948C57.39 34.684 57.516 34.33 57.516 33.886H59.658C59.658 34.846 59.34 35.644 58.704 36.28C58.056 36.928 57.15 37.252 55.986 37.252C54.834 37.252 53.868 36.832 53.088 35.992C52.26 35.092 51.846 33.97 51.846 32.626C51.846 31.21 52.26 30.076 53.088 29.224C53.868 28.42 54.84 28.018 56.004 28.018ZM64.3429 29.674C64.9429 28.57 65.8189 28.018 66.9709 28.018C68.1229 28.018 68.9689 28.372 69.5089 29.08C70.0609 29.788 70.3369 30.724 70.3369 31.888V37H68.2129V31.888C68.2129 31.24 68.0569 30.754 67.7449 30.43C67.4329 30.094 66.9949 29.926 66.4309 29.926C65.8669 29.926 65.3809 30.178 64.9729 30.682C64.5769 31.186 64.3669 31.942 64.3429 32.95V37H62.2189V24.652H64.3429V29.674ZM79.2478 35.416C78.6958 36.58 77.8078 37.162 76.5838 37.162C75.0358 37.162 74.0158 36.556 73.5238 35.344C73.3438 34.924 73.2538 34.414 73.2538 33.814V28.234H75.3778V33.598C75.3778 34.174 75.5158 34.606 75.7918 34.894C76.0678 35.17 76.4038 35.308 76.7998 35.308C77.2078 35.308 77.5498 35.254 77.8258 35.146C78.1018 35.026 78.3418 34.852 78.5458 34.624C78.9898 34.108 79.2238 33.418 79.2478 32.554V28.234H81.3718V37H79.2478V35.416ZM89.6509 36.784C88.8589 37.096 88.2349 37.252 87.7789 37.252C87.3229 37.252 86.9209 37.198 86.5729 37.09C86.2369 36.982 85.9369 36.82 85.6729 36.604C85.1209 36.112 84.8449 35.434 84.8449 34.57V29.674H83.6209V28.252H84.8449V25.948H86.9689V28.252H89.3449V29.674H86.9689V34.498C86.9689 35.218 87.3109 35.578 87.9949 35.578C88.3429 35.578 88.7929 35.482 89.3449 35.29L89.6509 36.784ZM93.9445 29.674C94.5445 28.57 95.4205 28.018 96.5725 28.018C97.7245 28.018 98.5705 28.372 99.1105 29.08C99.6625 29.788 99.9385 30.724 99.9385 31.888V37H97.8145V31.888C97.8145 31.24 97.6585 30.754 97.3465 30.43C97.0345 30.094 96.5965 29.926 96.0325 29.926C95.4685 29.926 94.9825 30.178 94.5745 30.682C94.1785 31.186 93.9685 31.942 93.9445 32.95V37H91.8205V24.652H93.9445V29.674ZM105.915 31.888C106.611 31.888 107.415 32.002 108.327 32.23V31.366C108.327 30.754 108.201 30.304 107.949 30.016C107.709 29.716 107.307 29.566 106.743 29.566C106.191 29.566 105.765 29.68 105.465 29.908C105.165 30.124 105.015 30.436 105.015 30.844H102.693C102.693 29.848 103.041 29.128 103.737 28.684C104.445 28.24 105.429 28.018 106.689 28.018C108.489 28.018 109.653 28.648 110.181 29.908C110.361 30.34 110.451 30.85 110.451 31.438V37H108.597L108.435 35.83C107.871 36.778 107.007 37.252 105.843 37.252C104.715 37.252 103.839 36.976 103.215 36.424C102.639 35.896 102.351 35.23 102.351 34.426C102.351 33.61 102.669 32.986 103.305 32.554C103.941 32.11 104.811 31.888 105.915 31.888ZM108.327 33.58C107.619 33.388 106.959 33.292 106.347 33.292C105.195 33.292 104.619 33.676 104.619 34.444C104.619 34.768 104.751 35.05 105.015 35.29C105.279 35.518 105.699 35.632 106.275 35.632C106.863 35.632 107.343 35.44 107.715 35.056C108.099 34.66 108.303 34.168 108.327 33.58ZM121.323 29.908C121.887 28.648 122.877 28.018 124.293 28.018C125.337 28.018 126.147 28.372 126.723 29.08C127.275 29.752 127.551 30.688 127.551 31.888V37H125.409V31.888C125.409 31.24 125.253 30.754 124.941 30.43C124.629 30.094 124.191 29.926 123.627 29.926C123.063 29.926 122.601 30.172 122.241 30.664C121.881 31.156 121.689 31.9 121.665 32.896V37H119.541V31.888C119.541 31.24 119.385 30.754 119.073 30.43C118.761 30.094 118.323 29.926 117.759 29.926C117.195 29.926 116.709 30.178 116.301 30.682C115.905 31.186 115.695 31.942 115.671 32.95V37H113.547V28.252H115.401L115.635 29.764C116.211 28.6 117.135 28.018 118.407 28.018C119.139 28.018 119.745 28.186 120.225 28.522C120.717 28.858 121.083 29.32 121.323 29.908ZM131.821 34.336C131.845 35.164 132.451 35.578 133.639 35.578C134.095 35.578 134.467 35.482 134.755 35.29C135.055 35.086 135.205 34.852 135.205 34.588C135.205 34.324 135.115 34.12 134.935 33.976C134.755 33.832 134.473 33.7 134.089 33.58L132.181 32.896C130.765 32.404 130.057 31.6 130.057 30.484C130.057 29.74 130.387 29.146 131.047 28.702C131.719 28.246 132.613 28.018 133.729 28.018C134.857 28.018 135.721 28.264 136.321 28.756C136.933 29.248 137.251 29.866 137.275 30.61H135.277C135.253 30.322 135.115 30.094 134.863 29.926C134.611 29.758 134.251 29.674 133.783 29.674C133.315 29.674 132.949 29.77 132.685 29.962C132.433 30.142 132.307 30.352 132.307 30.592C132.307 31.012 132.661 31.324 133.369 31.528L135.439 32.302C136.123 32.53 136.645 32.824 137.005 33.184C137.377 33.532 137.563 33.988 137.563 34.552C137.563 35.272 137.221 35.896 136.537 36.424C135.829 36.976 134.893 37.252 133.729 37.252C132.565 37.252 131.629 37 130.921 36.496C130.213 35.98 129.853 35.26 129.841 34.336H131.821ZM143.005 31.888C143.701 31.888 144.505 32.002 145.417 32.23V31.366C145.417 30.754 145.291 30.304 145.039 30.016C144.799 29.716 144.397 29.566 143.833 29.566C143.281 29.566 142.855 29.68 142.555 29.908C142.255 30.124 142.105 30.436 142.105 30.844H139.783C139.783 29.848 140.131 29.128 140.827 28.684C141.535 28.24 142.519 28.018 143.779 28.018C145.579 28.018 146.743 28.648 147.271 29.908C147.451 30.34 147.541 30.85 147.541 31.438V37H145.687L145.525 35.83C144.961 36.778 144.097 37.252 142.933 37.252C141.805 37.252 140.929 36.976 140.305 36.424C139.729 35.896 139.441 35.23 139.441 34.426C139.441 33.61 139.759 32.986 140.395 32.554C141.031 32.11 141.901 31.888 143.005 31.888ZM145.417 33.58C144.709 33.388 144.049 33.292 143.437 33.292C142.285 33.292 141.709 33.676 141.709 34.444C141.709 34.768 141.841 35.05 142.105 35.29C142.369 35.518 142.789 35.632 143.365 35.632C143.953 35.632 144.433 35.44 144.805 35.056C145.189 34.66 145.393 34.168 145.417 33.58ZM155.569 36.784C154.777 37.096 154.153 37.252 153.697 37.252C153.241 37.252 152.839 37.198 152.491 37.09C152.155 36.982 151.855 36.82 151.591 36.604C151.039 36.112 150.763 35.434 150.763 34.57V29.674H149.539V28.252H150.763V25.948H152.887V28.252H155.263V29.674H152.887V34.498C152.887 35.218 153.229 35.578 153.913 35.578C154.261 35.578 154.711 35.482 155.263 35.29L155.569 36.784ZM157.918 28.234H160.042V37H157.918V28.234ZM157.666 25.426C157.666 25.042 157.78 24.742 158.008 24.526C158.236 24.298 158.56 24.184 158.98 24.184C159.388 24.184 159.706 24.298 159.934 24.526C160.174 24.742 160.294 25.042 160.294 25.426C160.294 25.81 160.174 26.116 159.934 26.344C159.706 26.56 159.388 26.668 158.98 26.668C158.56 26.668 158.236 26.56 158.008 26.344C157.78 26.116 157.666 25.81 157.666 25.426ZM169.351 35.65C168.811 36.718 167.983 37.252 166.867 37.252C165.751 37.252 164.815 36.826 164.059 35.974C163.279 35.086 162.889 33.958 162.889 32.59C162.889 31.222 163.261 30.112 164.005 29.26C164.737 28.432 165.649 28.018 166.741 28.018C167.833 28.018 168.655 28.456 169.207 29.332V24.652H171.349V37H169.603L169.351 35.65ZM167.137 29.926C166.537 29.926 166.033 30.172 165.625 30.664C165.229 31.144 165.031 31.792 165.031 32.608C165.031 33.424 165.235 34.084 165.643 34.588C166.051 35.08 166.567 35.326 167.191 35.326C167.707 35.326 168.169 35.122 168.577 34.714C168.997 34.294 169.207 33.766 169.207 33.13V31.996C169.183 31.372 168.973 30.862 168.577 30.466C168.217 30.106 167.737 29.926 167.137 29.926Z" fill="#AA4725"/>
</svg>
