<svg width="158" height="37" viewBox="0 0 158 37" fill="none" xmlns="http://www.w3.org/2000/svg">
<g clip-path="url(#clip0_37_14)">
<path d="M37.6969 32.7695L37.666 12.4567L43.0643 12.4485L48.1749 24.5728L48.6758 24.572L53.7217 12.4323L59.2034 12.4239L59.2343 32.7367L55.3108 32.7426L55.2844 15.4073L55.7854 15.4622L50.3237 28.6043L46.2889 28.6104L40.7593 15.485L41.2879 15.4286L41.3143 32.7641L37.6969 32.7695Z" fill="#FFFCF8"/>
<path d="M72.6221 33.245C70.73 33.2479 69.1341 32.8886 67.8344 32.1671C66.5348 31.4457 65.5408 30.4362 64.8524 29.1386C64.1826 27.8226 63.8463 26.2834 63.8437 24.5211L63.8252 12.4169L67.7765 12.4109L67.7953 24.7377C67.7968 25.7023 67.9835 26.5553 68.3557 27.2969C68.7279 28.0198 69.2666 28.5846 69.9723 28.9917C70.6963 29.3802 71.5777 29.5736 72.6166 29.572C73.6368 29.5705 74.4991 29.3743 75.2036 28.9838C75.9263 28.5745 76.4635 28.0079 76.8148 27.2839C77.1848 26.5599 77.369 25.7063 77.3675 24.7231L77.3487 12.3963L81.3 12.3903L81.3183 24.4945C81.3211 26.2567 80.9896 27.797 80.3237 29.1151C79.6765 30.4146 78.7041 31.427 77.4066 32.1526C76.1092 32.878 74.5143 33.2421 72.6221 33.245Z" fill="#FFFCF8"/>
<path d="M89.3528 32.8022L89.3473 29.1292L93.549 29.1228C94.6064 29.1211 95.543 28.9621 96.3588 28.6454C97.193 28.3103 97.8973 27.8454 98.4713 27.2509C99.0455 26.6564 99.4804 25.9601 99.7761 25.162C100.09 24.3453 100.246 23.4454 100.245 22.4622C100.243 21.4419 100.084 20.5332 99.7677 19.736C99.4697 18.9202 99.0327 18.2253 98.4567 17.6511C97.8808 17.0769 97.1752 16.642 96.34 16.3465C95.5233 16.0509 94.5862 15.9039 93.5288 15.9055L89.3271 15.9119L89.3215 12.2389L93.2728 12.2329C95.1094 12.2301 96.7144 12.4967 98.088 13.0325C99.4615 13.5684 100.604 14.3087 101.514 15.2534C102.424 16.1795 103.103 17.2451 103.55 18.4503C104.016 19.6368 104.25 20.87 104.251 22.15L104.252 22.7622C104.254 23.9865 104.024 25.1927 103.562 26.3806C103.119 27.5684 102.443 28.6454 101.536 29.6114C100.628 30.5775 99.4886 31.3491 98.1168 31.9262C96.7448 32.5033 95.1407 32.7933 93.3041 32.7962L89.3528 32.8022ZM85.9581 32.8073L85.9268 12.2441L89.8781 12.2381L89.9094 32.8014L85.9581 32.8073Z" fill="#FFFCF8"/>
<path d="M107.806 32.6628L107.775 12.35L113.173 12.3418L118.284 24.466L118.785 24.4652L123.831 12.3255L129.312 12.3172L129.343 32.6299L125.42 32.6359L125.393 15.3005L125.894 15.3554L120.433 28.4975L116.398 28.5037L110.868 15.3783L111.397 15.3218L111.423 32.6572L107.806 32.6628Z" fill="#FFFCF8"/>
<path d="M134.41 32.6223L134.379 12.3095L138.331 12.3034L138.362 32.6162L134.41 32.6223Z" fill="#FFFCF8"/>
<path d="M143.43 32.6085L143.399 12.2957L147.267 12.2898L147.298 32.6027L143.43 32.6085ZM146.742 32.6035L146.737 29.2644L155.947 29.2504L155.952 32.5895L146.742 32.6035ZM146.729 23.9497L146.723 20.6106L155.21 20.5977L155.215 23.9367L146.729 23.9497ZM146.716 15.6298L146.711 12.2907L155.699 12.277L155.704 15.6161L146.716 15.6298Z" fill="#FFFCF8"/>
</g>
<path d="M13.9654 28.2147C15.9763 28.2118 17.3879 27.2857 18.2018 26.4149C18.6901 25.8706 19.5053 25.8151 20.0495 26.3033C20.5936 26.7916 20.595 27.6069 20.1067 28.1511C18.9129 29.4572 16.8498 30.8191 13.9694 30.8234C11.0346 30.8279 8.96734 29.4723 7.76971 28.1699C7.27974 27.6271 7.2785 26.812 7.82124 26.3219C8.36397 25.832 9.17927 25.8852 9.66922 26.4278C10.4858 27.2961 11.9002 28.2179 13.9654 28.2147ZM11.3448 20.3927C11.3463 21.371 10.5866 22.1331 9.60833 22.1345C8.63007 22.136 7.86805 21.3762 7.86656 20.398C7.86515 19.4741 8.62478 18.6578 9.60305 18.6562C10.5813 18.6548 11.3434 19.4689 11.3448 20.3927ZM16.5622 20.3847C16.5608 19.4609 17.3204 18.6446 18.2987 18.643C19.2769 18.6416 20.039 19.4555 20.0404 20.3795C20.042 21.3578 19.2823 22.1199 18.3041 22.1212C17.3257 22.1228 16.5637 21.363 16.5622 20.3847ZM27.8705 22.9762C27.8823 30.6935 21.6416 36.8987 13.9787 36.9103C6.26129 36.9221 0.0562016 30.7359 0.0444501 23.0186C0.0327813 15.3557 6.21892 9.0963 13.9363 9.08456C21.5994 9.07289 27.8589 15.3133 27.8705 22.9762ZM13.9403 11.6932C7.69028 11.7027 2.64372 16.8191 2.65314 23.0146C2.66266 29.2646 7.7247 34.3112 13.9747 34.3016C20.1703 34.2922 25.2714 29.2302 25.2618 22.9802C25.2524 16.7846 20.1359 11.6838 13.9403 11.6932Z" fill="#FFFCF8"/>
<path d="M27.9878 -2.04915e-10L29.367 6.62887L36 7.98772L29.371 9.36676L28.0122 15.9998L26.6332 9.37092L20 8.01208L26.629 6.63303L27.9878 -2.04915e-10Z" fill="#FC7E55"/>
<defs>
<clipPath id="clip0_37_14">
<rect width="119.652" height="22.2606" fill="white" transform="translate(37.5889 11.8472)"/>
</clipPath>
</defs>
</svg>
