<svg width="107" height="25" viewBox="0 0 107 25" fill="none" xmlns="http://www.w3.org/2000/svg">
<path d="M12.4809 0.00024414L14.6359 10.3579L25 12.4811L14.6422 14.6358L12.5191 24.9999L10.3644 14.6423L3.21153e-10 12.5191L10.3578 10.3644L12.4809 0.00024414Z" fill="#FC7E55"/>
<path d="M30.084 20L30.8652 5.9375H34.9863L38.2676 18.2617H37.9062L41.1973 5.9375H45.3281L46.1094 20H43.6484L43.0039 7.77344H43.0332L39.6055 20H36.5879L33.1602 7.77344H33.1895L32.5352 20H30.084ZM52.0371 20.2441C51.2559 20.2441 50.5983 20.0684 50.0645 19.7168C49.5371 19.3587 49.14 18.8574 48.873 18.2129C48.6061 17.5684 48.4727 16.8197 48.4727 15.9668V9.45312H50.8848V15.7031C50.8848 16.556 51.0378 17.2135 51.3438 17.6758C51.6497 18.138 52.1576 18.3691 52.8672 18.3691C53.3359 18.3691 53.7591 18.2487 54.1367 18.0078C54.5143 17.7604 54.8171 17.373 55.0449 16.8457C55.2728 16.3184 55.3867 15.6283 55.3867 14.7754V9.45312H57.8086V20H55.4844V17.5195L55.5527 17.959C55.2533 18.6491 54.804 19.2025 54.2051 19.6191C53.6126 20.0358 52.89 20.2441 52.0371 20.2441ZM64.3223 20.2441C63.4564 20.2441 62.6947 20.0228 62.0371 19.5801C61.3861 19.1374 60.8815 18.5026 60.5234 17.6758C60.1719 16.8424 59.9961 15.8529 59.9961 14.707C59.9961 13.5612 60.1751 12.5781 60.5332 11.7578C60.8913 10.9375 61.3958 10.3092 62.0469 9.87305C62.7044 9.43034 63.4727 9.20898 64.3516 9.20898C65.0938 9.20898 65.7839 9.38477 66.4219 9.73633C67.0599 10.0879 67.5612 10.6738 67.9258 11.4941L67.6719 11.5332V5.35156H70.0938V20H67.7988V17.8516L67.8379 17.998C67.5124 18.7663 67.0339 19.3327 66.4023 19.6973C65.7773 20.0618 65.084 20.2441 64.3223 20.2441ZM65.1426 18.3691C65.6374 18.3691 66.0833 18.2389 66.4805 17.9785C66.8776 17.7181 67.1934 17.321 67.4277 16.7871C67.6621 16.2467 67.7793 15.5664 67.7793 14.7461C67.7793 13.5156 67.5254 12.5977 67.0176 11.9922C66.5098 11.3867 65.8913 11.084 65.1621 11.084C64.3939 11.084 63.7689 11.4062 63.2871 12.0508C62.8118 12.6888 62.5742 13.5938 62.5742 14.7656C62.5742 15.8984 62.8053 16.7839 63.2676 17.4219C63.7298 18.0534 64.3548 18.3691 65.1426 18.3691ZM72.9844 20V9.45312H75.2988V11.1914C75.5853 10.6055 76.0052 10.1302 76.5586 9.76562C77.1185 9.39453 77.7728 9.20898 78.5215 9.20898C79.2441 9.20898 79.8594 9.39453 80.3672 9.76562C80.8815 10.1302 81.2624 10.6608 81.5098 11.3574C81.8809 10.6608 82.3594 10.1302 82.9453 9.76562C83.5312 9.39453 84.1823 9.20898 84.8984 9.20898C85.9401 9.20898 86.7474 9.58008 87.3203 10.3223C87.8997 11.0645 88.1895 12.1191 88.1895 13.4863V20H85.7773V13.5156C85.7773 13.0404 85.7285 12.6204 85.6309 12.2559C85.5332 11.8913 85.3672 11.6048 85.1328 11.3965C84.8984 11.1882 84.5697 11.084 84.1465 11.084C83.6647 11.084 83.248 11.2337 82.8965 11.5332C82.5449 11.8262 82.2715 12.2428 82.0762 12.7832C81.8874 13.3171 81.793 13.9486 81.793 14.6777V20H79.3809V13.5156C79.3809 13.0404 79.332 12.6204 79.2344 12.2559C79.1367 11.8913 78.9707 11.6048 78.7363 11.3965C78.502 11.1882 78.1797 11.084 77.7695 11.084C77.2878 11.084 76.8678 11.2305 76.5098 11.5234C76.1582 11.8164 75.8848 12.2331 75.6895 12.7734C75.4941 13.3073 75.3965 13.9453 75.3965 14.6875V20H72.9844ZM90.9434 20V9.45312H93.3555V20H90.9434ZM92.1445 7.99805C91.6432 7.99805 91.2331 7.83854 90.9141 7.51953C90.5951 7.20052 90.4355 6.79036 90.4355 6.28906C90.4355 5.78125 90.5951 5.37109 90.9141 5.05859C91.2331 4.73958 91.6432 4.58008 92.1445 4.58008C92.6523 4.58008 93.0625 4.73958 93.375 5.05859C93.694 5.37109 93.8535 5.78125 93.8535 6.28906C93.8535 6.79036 93.694 7.20052 93.375 7.51953C93.0625 7.83854 92.6523 7.99805 92.1445 7.99805ZM100.846 20.2441C99.8236 20.2441 98.9186 20.0195 98.1309 19.5703C97.3431 19.1211 96.7246 18.4831 96.2754 17.6562C95.8262 16.8294 95.6016 15.8529 95.6016 14.7266C95.6016 13.6003 95.8229 12.6237 96.2656 11.7969C96.7083 10.9701 97.3203 10.332 98.1016 9.88281C98.8828 9.43359 99.7845 9.20898 100.807 9.20898C101.38 9.20898 101.956 9.29688 102.535 9.47266C103.121 9.64844 103.655 9.96094 104.137 10.4102C104.625 10.8529 105.019 11.4681 105.318 12.2559C105.618 13.0371 105.768 14.0299 105.768 15.2344H97.1543V13.7012H103.619L103.248 14.2578C103.209 13.4701 103.072 12.8385 102.838 12.3633C102.61 11.8815 102.314 11.5332 101.949 11.3184C101.591 11.097 101.191 10.9863 100.748 10.9863C100.188 10.9863 99.7161 11.1393 99.332 11.4453C98.9479 11.7448 98.6549 12.1777 98.4531 12.7441C98.2578 13.304 98.1602 13.9681 98.1602 14.7363C98.1602 15.8822 98.3848 16.7806 98.834 17.4316C99.2832 18.0762 99.9473 18.3984 100.826 18.3984C101.425 18.3984 101.936 18.2454 102.359 17.9395C102.783 17.6335 103.098 17.1777 103.307 16.5723L105.553 17.1973C105.299 17.8809 104.938 18.4473 104.469 18.8965C104 19.3457 103.453 19.6842 102.828 19.9121C102.203 20.1335 101.542 20.2441 100.846 20.2441Z" fill="#191919"/>
</svg>
