<svg width="112" height="22" viewBox="0 0 112 22" fill="none" xmlns="http://www.w3.org/2000/svg">
<g clip-path="url(#clip0_15_979)">
<path d="M26.0777 21.0381L26.0555 6.43814L29.9355 6.43223L33.6088 15.1466L33.9688 15.1461L37.5955 6.42057L41.5355 6.41457L41.5577 21.0145L38.7377 21.0188L38.7187 8.55885L39.0788 8.59831L35.1532 18.0443L32.2532 18.0487L28.2788 8.61475L28.6588 8.57417L28.6777 21.0342L26.0777 21.0381Z" fill="#F5EEDF"/>
<path d="M51.1803 21.3799C49.8203 21.382 48.6733 21.1237 47.7391 20.6051C46.805 20.0866 46.0906 19.361 45.5958 18.4284C45.1144 17.4825 44.8727 16.3762 44.8708 15.1095L44.8575 6.40951L47.6975 6.40518L47.711 15.2652C47.7121 15.9585 47.8463 16.5716 48.1138 17.1046C48.3813 17.6242 48.7685 18.0302 49.2757 18.3228C49.7961 18.602 50.4296 18.741 51.1763 18.7399C51.9096 18.7388 52.5294 18.5978 53.0357 18.3171C53.5552 18.0229 53.9413 17.6157 54.1938 17.0953C54.4597 16.5749 54.5921 15.9614 54.591 15.2547L54.5775 6.3947L57.4175 6.39038L57.4307 15.0904C57.4327 16.357 57.1944 17.4641 56.7158 18.4115C56.2506 19.3455 55.5517 20.0732 54.6191 20.5947C53.6866 21.1161 52.5403 21.3778 51.1803 21.3799Z" fill="#F5EEDF"/>
<path d="M63.2053 21.0616L63.2013 18.4216L66.2213 18.417C66.9813 18.4158 67.6545 18.3015 68.2408 18.0739C68.8404 17.833 69.3466 17.4989 69.7592 17.0716C70.1719 16.6443 70.4845 16.1438 70.697 15.5702C70.9227 14.9832 71.0351 14.3363 71.034 13.6297C71.0329 12.8963 70.9186 12.2432 70.691 11.6702C70.4768 11.0838 70.1627 10.5843 69.7487 10.1716C69.3348 9.7589 68.8276 9.44634 68.2273 9.23392C67.6403 9.02148 66.9668 8.91584 66.2068 8.917L63.1868 8.9216L63.1828 6.2816L66.0228 6.27728C67.3428 6.27527 68.4964 6.46684 69.4837 6.85201C70.4709 7.23717 71.2918 7.76925 71.9461 8.44826C72.6005 9.11393 73.0883 9.87985 73.4096 10.746C73.7443 11.5989 73.9123 12.4853 73.9137 13.4053L73.9143 13.8453C73.9157 14.7253 73.7503 15.5922 73.4183 16.446C73.0996 17.2998 72.6141 18.0739 71.9618 18.7682C71.3096 19.4626 70.4904 20.0172 69.5044 20.432C68.5183 20.8468 67.3653 21.0552 66.0453 21.0573L63.2053 21.0616ZM60.7653 21.0653L60.7428 6.28532L63.5828 6.28099L63.6053 21.061L60.7653 21.0653Z" fill="#F5EEDF"/>
<path d="M76.4683 20.9614L76.4461 6.3614L80.3261 6.35549L83.9993 15.0699L84.3593 15.0694L87.9861 6.34383L91.926 6.33783L91.9483 20.9378L89.1283 20.9421L89.1093 8.48212L89.4694 8.52157L85.5438 17.9676L82.6438 17.972L78.6694 8.53802L79.0493 8.49744L79.0683 20.9574L76.4683 20.9614Z" fill="#F5EEDF"/>
<path d="M95.5903 20.9323L95.5681 6.33229L98.4081 6.32796L98.4303 20.9279L95.5903 20.9323Z" fill="#F5EEDF"/>
<path d="M102.074 20.9224L102.051 6.32241L104.831 6.31818L104.854 20.9182L102.074 20.9224ZM104.454 20.9188L104.45 18.5188L111.07 18.5087L111.074 20.9087L104.454 20.9188ZM104.444 14.6988L104.441 12.2988L110.541 12.2895L110.544 14.6895L104.444 14.6988ZM104.435 8.71879L104.432 6.31879L110.892 6.30895L110.895 8.70895L104.435 8.71879Z" fill="#F5EEDF"/>
</g>
<g clip-path="url(#clip1_15_979)">
<path d="M8.01979 16.0149C9.17604 16.0132 9.98773 15.4807 10.4557 14.98C10.7365 14.667 11.2052 14.6351 11.5181 14.9158C11.831 15.1966 11.8318 15.6654 11.551 15.9783C10.8646 16.7293 9.67832 17.5124 8.02207 17.5149C6.33458 17.5175 5.14589 16.738 4.45725 15.9891C4.17552 15.677 4.17481 15.2083 4.48688 14.9265C4.79895 14.6448 5.26775 14.6754 5.54947 14.9874C6.01898 15.4867 6.83229 16.0167 8.01979 16.0149ZM6.51294 11.5172C6.5138 12.0797 6.07696 12.5179 5.51446 12.5187C4.95196 12.5196 4.5138 12.0827 4.51294 11.5202C4.51213 10.989 4.94892 10.5196 5.51142 10.5187C6.07392 10.5179 6.51213 10.986 6.51294 11.5172ZM9.51294 11.5126C9.51213 10.9814 9.94891 10.512 10.5114 10.5111C11.0739 10.5103 11.5121 10.9783 11.5129 11.5096C11.5138 12.0721 11.077 12.5103 10.5145 12.5111C9.95196 12.512 9.51379 12.0751 9.51294 11.5126ZM16.0152 13.0027C16.022 17.4402 12.4336 21.0082 8.0274 21.0149C3.58991 21.0217 0.0219872 17.4646 0.0152301 13.0271C0.00852056 8.62085 3.56555 5.02168 8.00304 5.01493C12.4093 5.00822 16.0085 8.59649 16.0152 13.0027ZM8.00532 6.51492C4.41158 6.5204 1.50981 9.46232 1.51523 13.0248C1.5207 16.6186 4.43137 19.5204 8.02512 19.5149C11.5876 19.5095 14.5207 16.5988 14.5152 13.005C14.5098 9.44252 11.5678 6.5095 8.00532 6.51492Z" fill="#F5EEDF"/>
<path d="M16.9999 0.997017L17.6895 4.31149L21.006 4.99092L17.6915 5.68045L17.0121 8.99701L16.3226 5.68253L13.006 5.0031L16.3205 4.31357L16.9999 0.997017Z" fill="#FF8962"/>
</g>
<defs>
<clipPath id="clip0_15_979">
<rect width="86" height="16" fill="white" transform="translate(26 6)"/>
</clipPath>
<clipPath id="clip1_15_979">
<rect width="22" height="22" fill="white"/>
</clipPath>
</defs>
</svg>
