<svg width="158" height="38" viewBox="0 0 158 38" fill="none" xmlns="http://www.w3.org/2000/svg">
<g clip-path="url(#clip0_70_1300)">
<path d="M37.7707 33.3839L37.7397 13.0711L43.138 13.0629L48.2486 25.1872L48.7495 25.1864L53.7954 13.0467L59.2771 13.0383L59.308 33.3511L55.3845 33.357L55.3581 16.0217L55.8591 16.0766L50.3974 29.2186L46.3626 29.2248L40.8331 16.0994L41.3617 16.043L41.3881 33.3785L37.7707 33.3839Z" fill="#191919"/>
<path d="M72.6961 33.8596C70.8039 33.8625 69.2081 33.5032 67.9084 32.7817C66.6087 32.0603 65.6148 31.0508 64.9264 29.7532C64.2566 28.4372 63.9203 26.898 63.9177 25.1357L63.8992 13.0315L67.8505 13.0255L67.8693 25.3523C67.8708 26.3169 68.0575 27.1699 68.4297 27.9115C68.8018 28.6344 69.3406 29.1992 70.0462 29.6063C70.7703 29.9948 71.6517 30.1882 72.6905 30.1866C73.7108 30.1851 74.5731 29.9889 75.2775 29.5984C76.0003 29.1891 76.5375 28.6225 76.8888 27.8985C77.2588 27.1745 77.443 26.3209 77.4414 25.3377L77.4226 13.0109L81.374 13.0049L81.3923 25.1091C81.3951 26.8713 81.0636 28.4116 80.3977 29.7297C79.7504 31.0292 78.7781 32.0416 77.4805 32.7672C76.1831 33.4926 74.5883 33.8567 72.6961 33.8596Z" fill="#191919"/>
<path d="M89.4266 33.4167L89.421 29.7437L93.6227 29.7373C94.6801 29.7356 95.6168 29.5766 96.4325 29.2599C97.2667 28.9248 97.971 28.46 98.545 27.8655C99.1192 27.271 99.5542 26.5746 99.8498 25.7765C100.164 24.9598 100.32 24.0599 100.319 23.0767C100.317 22.0564 100.158 21.1477 99.8415 20.3505C99.5434 19.5347 99.1064 18.8398 98.5304 18.2656C97.9546 17.6914 97.2489 17.2565 96.4137 16.961C95.597 16.6654 94.66 16.5184 93.6026 16.5201L89.4008 16.5265L89.3953 12.8535L93.3466 12.8474C95.1831 12.8446 96.7881 13.1112 98.1617 13.647C99.5352 14.1829 100.677 14.9232 101.588 15.8679C102.498 16.794 103.177 17.8597 103.624 19.0648C104.09 20.2513 104.323 21.4845 104.325 22.7645L104.326 23.3767C104.328 24.601 104.098 25.8072 103.636 26.9951C103.193 28.1829 102.517 29.2599 101.61 30.2259C100.702 31.192 99.5624 31.9636 98.1905 32.5407C96.8186 33.1178 95.2144 33.4078 93.3779 33.4107L89.4266 33.4167ZM86.0318 33.4218L86.0005 12.8586L89.9518 12.8526L89.9831 33.4159L86.0318 33.4218Z" fill="#191919"/>
<path d="M107.879 33.2772L107.848 12.9644L113.247 12.9562L118.357 25.0805L118.858 25.0797L123.904 12.94L129.386 12.9316L129.417 33.2444L125.493 33.2504L125.467 15.915L125.968 15.9698L120.506 29.112L116.471 29.1181L110.942 15.9927L111.47 15.9363L111.497 33.2717L107.879 33.2772Z" fill="#191919"/>
<path d="M134.484 33.2368L134.453 12.924L138.404 12.918L138.435 33.2307L134.484 33.2368Z" fill="#191919"/>
<path d="M143.504 33.2231L143.473 12.9103L147.341 12.9044L147.372 33.2173L143.504 33.2231ZM146.816 33.2181L146.811 29.879L156.021 29.865L156.026 33.2041L146.816 33.2181ZM146.803 24.5643L146.797 21.2252L155.284 21.2123L155.289 24.5513L146.803 24.5643ZM146.79 16.2444L146.785 12.9053L155.773 12.8916L155.778 16.2307L146.79 16.2444Z" fill="#191919"/>
</g>
<path d="M14.0397 28.8294C16.0505 28.8265 17.4622 27.9004 18.276 27.0296C18.7644 26.4853 19.5795 26.4298 20.1237 26.918C20.6678 27.4063 20.6692 28.2216 20.1809 28.7658C18.9872 30.0718 16.9241 31.4337 14.0436 31.4381C11.1088 31.4426 9.04156 30.087 7.84392 28.7845C7.35396 28.2418 7.35272 27.4266 7.89545 26.9366C8.43819 26.4467 9.25349 26.4999 9.74344 27.0425C10.56 27.9108 11.9744 28.8325 14.0397 28.8294ZM11.419 21.0074C11.4205 21.9857 10.6608 22.7477 9.68255 22.7491C8.70429 22.7507 7.94227 21.9909 7.94078 21.0126C7.93937 20.0888 8.699 19.2725 9.67726 19.2709C10.6555 19.2695 11.4176 20.0836 11.419 21.0074ZM16.6364 20.9994C16.635 20.0756 17.3946 19.2593 18.3729 19.2577C19.3512 19.2563 20.1132 20.0702 20.1146 20.9942C20.1162 21.9724 19.3565 22.7345 18.3783 22.7359C17.3999 22.7375 16.6379 21.9777 16.6364 20.9994ZM27.9447 23.5909C27.9565 31.3082 21.7158 37.5133 14.0529 37.525C6.33551 37.5368 0.13042 31.3506 0.118669 23.6333C0.107 15.9703 6.29314 9.71097 14.0105 9.69924C21.6736 9.68757 27.9331 15.928 27.9447 23.5909ZM14.0145 12.3079C7.7645 12.3174 2.71794 17.4337 2.72736 23.6293C2.73688 29.8793 7.79892 34.9259 14.0489 34.9163C20.2445 34.9069 25.3456 29.8449 25.336 23.5949C25.3266 17.3993 20.2101 12.2985 14.0145 12.3079Z" fill="#191919"/>
<path d="M28.0618 0.614502L29.441 7.24338L36.074 8.60222L29.445 9.98126L28.0862 16.6143L26.7072 9.98542L20.074 8.62658L26.703 7.24754L28.0618 0.614502Z" fill="#FC7E55"/>
<defs>
<clipPath id="clip0_70_1300">
<rect width="119.652" height="22.2606" fill="white" transform="translate(37.6626 12.4617)"/>
</clipPath>
</defs>
</svg>
