<svg width="112" height="26" viewBox="0 0 112 26" fill="none" xmlns="http://www.w3.org/2000/svg">
<g clip-path="url(#clip0_15_979)">
<path d="M26.0777 24.0381L26.0555 9.43814L29.9355 9.43223L33.6088 18.1466L33.9688 18.1461L37.5955 9.42057L41.5355 9.41457L41.5577 24.0145L38.7377 24.0188L38.7187 11.5589L39.0788 11.5983L35.1532 21.0443L32.2532 21.0487L28.2788 11.6148L28.6588 11.5742L28.6777 24.0342L26.0777 24.0381Z" fill="#F5EEDF"/>
<path d="M51.1803 24.3799C49.8203 24.382 48.6733 24.1237 47.7391 23.6051C46.805 23.0866 46.0906 22.361 45.5958 21.4284C45.1144 20.4825 44.8727 19.3762 44.8708 18.1095L44.8575 9.40951L47.6975 9.40518L47.711 18.2652C47.7121 18.9585 47.8463 19.5716 48.1138 20.1046C48.3813 20.6242 48.7685 21.0302 49.2757 21.3228C49.7961 21.602 50.4296 21.741 51.1763 21.7399C51.9096 21.7388 52.5294 21.5978 53.0357 21.3171C53.5552 21.0229 53.9413 20.6157 54.1938 20.0953C54.4597 19.5749 54.5921 18.9614 54.591 18.2547L54.5775 9.3947L57.4175 9.39038L57.4307 18.0904C57.4327 19.357 57.1944 20.4641 56.7158 21.4115C56.2506 22.3455 55.5517 23.0732 54.6191 23.5947C53.6866 24.1161 52.5403 24.3778 51.1803 24.3799Z" fill="#F5EEDF"/>
<path d="M63.2053 24.0616L63.2013 21.4216L66.2213 21.417C66.9813 21.4158 67.6545 21.3015 68.2408 21.0739C68.8404 20.833 69.3466 20.4989 69.7592 20.0716C70.1719 19.6443 70.4845 19.1438 70.697 18.5702C70.9227 17.9832 71.0351 17.3363 71.034 16.6297C71.0329 15.8963 70.9186 15.2432 70.691 14.6702C70.4768 14.0838 70.1627 13.5843 69.7487 13.1716C69.3348 12.7589 68.8276 12.4463 68.2273 12.2339C67.6403 12.0215 66.9668 11.9158 66.2068 11.917L63.1868 11.9216L63.1828 9.2816L66.0228 9.27728C67.3428 9.27527 68.4964 9.46684 69.4837 9.85201C70.4709 10.2372 71.2918 10.7693 71.9461 11.4483C72.6005 12.1139 73.0883 12.8799 73.4096 13.746C73.7443 14.5989 73.9123 15.4853 73.9137 16.4053L73.9143 16.8453C73.9157 17.7253 73.7503 18.5922 73.4183 19.446C73.0996 20.2998 72.6141 21.0739 71.9618 21.7682C71.3096 22.4626 70.4904 23.0172 69.5044 23.432C68.5183 23.8468 67.3653 24.0552 66.0453 24.0573L63.2053 24.0616ZM60.7653 24.0653L60.7428 9.28532L63.5828 9.28099L63.6053 24.061L60.7653 24.0653Z" fill="#F5EEDF"/>
<path d="M76.4683 23.9614L76.4461 9.3614L80.3261 9.35549L83.9993 18.0699L84.3593 18.0694L87.9861 9.34383L91.926 9.33783L91.9483 23.9378L89.1283 23.9421L89.1093 11.4821L89.4694 11.5216L85.5438 20.9676L82.6438 20.972L78.6694 11.538L79.0493 11.4974L79.0683 23.9574L76.4683 23.9614Z" fill="#F5EEDF"/>
<path d="M95.5903 23.9323L95.5681 9.33229L98.4081 9.32796L98.4303 23.9279L95.5903 23.9323Z" fill="#F5EEDF"/>
<path d="M102.074 23.9224L102.051 9.32241L104.831 9.31818L104.854 23.9182L102.074 23.9224ZM104.454 23.9188L104.45 21.5188L111.07 21.5087L111.074 23.9087L104.454 23.9188ZM104.444 17.6988L104.441 15.2988L110.541 15.2895L110.544 17.6895L104.444 17.6988ZM104.435 11.7188L104.432 9.31879L110.892 9.30895L110.895 11.709L104.435 11.7188Z" fill="#F5EEDF"/>
</g>
<path d="M10.0209 18.7649C11.4663 18.7628 12.4809 18.0972 13.0658 17.4713C13.4168 17.08 14.0027 17.0402 14.3938 17.391C14.785 17.742 14.786 18.328 14.435 18.7192C13.577 19.6579 12.0941 20.6368 10.0238 20.6399C7.91442 20.6432 6.42856 19.6688 5.56776 18.7327C5.2156 18.3425 5.21471 17.7567 5.6048 17.4044C5.99488 17.0523 6.58089 17.0905 6.93304 17.4805C7.51992 18.1047 8.53656 18.7672 10.0209 18.7649ZM8.13737 13.1428C8.13845 13.8459 7.5924 14.3937 6.88927 14.3947C6.18615 14.3958 5.63845 13.8497 5.63737 13.1465C5.63636 12.4825 6.18235 11.8958 6.88547 11.8947C7.5886 11.8937 8.13636 12.4788 8.13737 13.1428ZM11.8874 13.137C11.8864 12.473 12.4323 11.8863 13.1355 11.8852C13.8386 11.8842 14.3863 12.4692 14.3873 13.1333C14.3885 13.8364 13.8425 14.3842 13.1393 14.3852C12.4362 14.3863 11.8884 13.8402 11.8874 13.137ZM20.0152 14.9997C20.0237 20.5465 15.5382 25.0065 10.0305 25.0149C4.48358 25.0234 0.0236789 20.577 0.0152325 15.0302C0.00684553 9.52234 4.45313 5.02337 10 5.01493C15.5078 5.00655 20.0068 9.49189 20.0152 14.9997ZM10.0029 6.88992C5.51067 6.89677 1.88346 10.5742 1.89023 15.0273C1.89707 19.5195 5.53541 23.1468 10.0276 23.1399C14.4807 23.1332 18.1471 19.4948 18.1402 15.0025C18.1335 10.5494 14.456 6.88315 10.0029 6.88992Z" fill="#F5EEDF"/>
<path d="M19.9939 2L20.6835 5.31448L24 5.99391L20.6855 6.68344L20.0061 10L19.3166 6.68552L16 6.00609L19.3145 5.31656L19.9939 2Z" fill="#FF8962"/>
<defs>
<clipPath id="clip0_15_979">
<rect width="86" height="16" fill="white" transform="translate(26 9)"/>
</clipPath>
</defs>
</svg>
