<svg xmlns="http://www.w3.org/2000/svg" viewBox="0 0 806.96 49.46"><defs><style>.cls-1{fill:none;stroke:#231f20;stroke-miterlimit:10;}</style></defs><g id="Layer_2" data-name="Layer 2"><g id="Layer_1-2" data-name="Layer 1"><path class="cls-1" d="M42.48,10.15a13.65,13.65,0,0,0-3.78-4.9,16.5,16.5,0,0,0-5.62-2.91,23.54,23.54,0,0,0-6.88-1H.5V48H8.78V32.4H26.2a26.19,26.19,0,0,0,6.88-.87A15.83,15.83,0,0,0,38.7,28.8,13.09,13.09,0,0,0,42.48,24a16.12,16.12,0,0,0,1.36-6.88A16.49,16.49,0,0,0,42.48,10.15ZM33.12,23.29a8.82,8.82,0,0,1-6.34,2.27h-18V8.64h18a8.89,8.89,0,0,1,6.34,2.23,8.18,8.18,0,0,1,2.37,6.26A8.13,8.13,0,0,1,33.12,23.29Z"/><path class="cls-1" d="M90.71,28a31,31,0,0,0-4.47-.7,25.26,25.26,0,0,0,3-.67,14.3,14.3,0,0,0,4.5-2.2,9.69,9.69,0,0,0,3-3.7,12.77,12.77,0,0,0,1.08-5.51,13.5,13.5,0,0,0-2.09-7.81,12.27,12.27,0,0,0-5.9-4.54,25.2,25.2,0,0,0-9.07-1.48H52.84V48h8.28V30.16H77.68a28.18,28.18,0,0,1,6.7.62,5.15,5.15,0,0,1,3.31,2.12,8.12,8.12,0,0,1,.94,4.25V48H97V36.72c0-2.64-.53-4.64-1.58-6A8.2,8.2,0,0,0,90.71,28ZM61.12,23.4V8.64H80.78q4.32,0,6.55,1.8a6.25,6.25,0,0,1,2.23,5.18,7.42,7.42,0,0,1-2.23,5.65Q85.1,23.4,80.78,23.4Z"/><path class="cls-1" d="M133.34,48.88a33.06,33.06,0,0,1-14.44-3,22.14,22.14,0,0,1-9.5-8.35,24,24,0,0,1-3.35-12.89,24.16,24.16,0,0,1,3.35-12.92,21.76,21.76,0,0,1,9.5-8.35A33.35,33.35,0,0,1,133.34.5a33.21,33.21,0,0,1,14.51,2.92,22,22,0,0,1,9.46,8.35,23.91,23.91,0,0,1,3.39,12.92,23.75,23.75,0,0,1-3.39,12.89,22.44,22.44,0,0,1-9.46,8.35A32.92,32.92,0,0,1,133.34,48.88Zm0-7.34A23.88,23.88,0,0,0,143,39.7a14.61,14.61,0,0,0,6.63-5.58,17.15,17.15,0,0,0,2.41-9.43,17,17,0,0,0-2.41-9.36A14.86,14.86,0,0,0,143,9.72a23.55,23.55,0,0,0-9.68-1.88,23.88,23.88,0,0,0-9.68,1.88,15,15,0,0,0-6.74,5.61,16.8,16.8,0,0,0-2.44,9.36,16.9,16.9,0,0,0,2.44,9.43,14.75,14.75,0,0,0,6.74,5.58A24.22,24.22,0,0,0,133.34,41.54Z"/><path class="cls-1" d="M192.88,1.36a37,37,0,0,1,12.67,1.88,21.1,21.1,0,0,1,8.18,5.07,18.49,18.49,0,0,1,4.35,7.38,29.31,29.31,0,0,1,1.3,8.79,27.56,27.56,0,0,1-1.44,8.92,20.22,20.22,0,0,1-4.57,7.53,21.8,21.8,0,0,1-8.18,5.18A35,35,0,0,1,192.88,48H170.06V1.36ZM178.34,40.75h14.4a24.7,24.7,0,0,0,8.85-1.37,13.53,13.53,0,0,0,8.54-8.89,20.31,20.31,0,0,0,.9-6,19.3,19.3,0,0,0-.9-5.87,13.38,13.38,0,0,0-3-5.08A14.14,14.14,0,0,0,201.59,10a25.23,25.23,0,0,0-8.85-1.33h-14.4Z"/><path class="cls-1" d="M268.19,28.29V1.36h8.28V28.94a23.15,23.15,0,0,1-1.18,7.74,15.65,15.65,0,0,1-3.39,5.65,18.06,18.06,0,0,1-5.18,3.78,24.82,24.82,0,0,1-6.52,2.13,41.63,41.63,0,0,1-7.49.64,43.73,43.73,0,0,1-7.66-.64,24.66,24.66,0,0,1-6.63-2.13,17.65,17.65,0,0,1-5.15-3.78,15.84,15.84,0,0,1-3.34-5.65,22.89,22.89,0,0,1-1.19-7.74V1.36H237V28.29c0,3.65.69,6.42,2.09,8.32a10.47,10.47,0,0,0,5.61,3.89,28.39,28.39,0,0,0,8,1,27.51,27.51,0,0,0,7.82-1,10.55,10.55,0,0,0,5.58-3.89Q268.2,33.76,268.19,28.29Z"/><path class="cls-1" d="M337.38,31.6a18.43,18.43,0,0,1-3.81,9.33,19.64,19.64,0,0,1-8.32,5.9,33,33,0,0,1-12.13,2.05,36.46,36.46,0,0,1-11-1.58,24.91,24.91,0,0,1-8.64-4.64,20.89,20.89,0,0,1-5.65-7.56,25,25,0,0,1-2-10.34,25.13,25.13,0,0,1,2-10.4,21.29,21.29,0,0,1,5.65-7.6,24.66,24.66,0,0,1,8.64-4.68,36.46,36.46,0,0,1,11-1.58,32.74,32.74,0,0,1,12.2,2.09,19.53,19.53,0,0,1,8.32,6,18.34,18.34,0,0,1,3.74,9.4h-8.13a13.19,13.19,0,0,0-3.1-5.51A13.87,13.87,0,0,0,320.68,9a22.38,22.38,0,0,0-7.56-1.19,23.09,23.09,0,0,0-9.68,1.95,15.2,15.2,0,0,0-6.7,5.69,16.77,16.77,0,0,0-2.41,9.28A16.67,16.67,0,0,0,296.74,34a15.26,15.26,0,0,0,6.7,5.69,23.24,23.24,0,0,0,9.68,1.94,21.78,21.78,0,0,0,7.52-1.19,13.55,13.55,0,0,0,8.61-8.82Z"/><polygon class="cls-1" points="386.2 1.36 340.98 1.36 340.98 8.49 359.49 8.49 359.49 48.02 367.77 48.02 367.77 8.49 386.2 8.49 386.2 1.36"/><path class="cls-1" d="M432.64,1.36a37.08,37.08,0,0,1,12.67,1.88,21.06,21.06,0,0,1,8.17,5.07,18.51,18.51,0,0,1,4.36,7.38,29.63,29.63,0,0,1,1.3,8.79,27.83,27.83,0,0,1-1.44,8.92,20.24,20.24,0,0,1-4.58,7.53A21.68,21.68,0,0,1,445,46.11,35,35,0,0,1,432.64,48H409.82V1.36ZM418.1,40.75h14.4a24.7,24.7,0,0,0,8.85-1.37,14.23,14.23,0,0,0,5.58-3.67,14,14,0,0,0,2.95-5.22,20.31,20.31,0,0,0,.9-6,19.3,19.3,0,0,0-.9-5.87,13.36,13.36,0,0,0-2.95-5.08A14.29,14.29,0,0,0,441.35,10a25.23,25.23,0,0,0-8.85-1.33H418.1Z"/><path class="cls-1" d="M476.77,28.22V40.89h33.12V48h-41.4V1.36h41.33V8.49H476.77V21.38h27.08v6.84Z"/><path class="cls-1" d="M516.73,32.47h8.21A8.14,8.14,0,0,0,527,37.26,12.47,12.47,0,0,0,532,40.57a19.34,19.34,0,0,0,7,1.19,16.66,16.66,0,0,0,5.83-.87,7.54,7.54,0,0,0,3.46-2.37,5.9,5.9,0,0,0,1.15-3.68,4.05,4.05,0,0,0-1.33-3.24A11.1,11.1,0,0,0,544,29.66q-2.81-.8-7.13-1.58a60.71,60.71,0,0,1-6.91-1.8A26.6,26.6,0,0,1,524,23.54a13.09,13.09,0,0,1-4.14-4,10.37,10.37,0,0,1-1.51-5.69A11.67,11.67,0,0,1,520.44,7a13.92,13.92,0,0,1,6.34-4.75A27.31,27.31,0,0,1,537.11.5q9.21,0,14.08,4.21T555.9,16.2H548q-.29-4.54-3.38-6.52a14.33,14.33,0,0,0-7.85-2,15.62,15.62,0,0,0-7.2,1.48A5,5,0,0,0,526.67,14a4.35,4.35,0,0,0,.68,2.41,5.94,5.94,0,0,0,2.31,1.87,23.33,23.33,0,0,0,4.39,1.58c1.85.51,4.14,1,6.88,1.55a54.32,54.32,0,0,1,6.51,1.62,20.4,20.4,0,0,1,5.33,2.52,11.09,11.09,0,0,1,3.56,3.93,11.94,11.94,0,0,1,1.3,5.83,12.42,12.42,0,0,1-2,7,13.26,13.26,0,0,1-6.19,4.82A27.93,27.93,0,0,1,538.62,49a28.89,28.89,0,0,1-8.75-1.19,22.24,22.24,0,0,1-6.33-3.1,18,18,0,0,1-4.21-4.14,14.62,14.62,0,0,1-2.2-4.35A9.18,9.18,0,0,1,516.73,32.47Z"/><path class="cls-1" d="M567.49,1.36h8.36V48h-8.36Z"/><path class="cls-1" d="M614.08,25.41v5.91h16.07a13.78,13.78,0,0,1-3,5,15.64,15.64,0,0,1-5.86,3.85,22.71,22.71,0,0,1-8.21,1.37,22.37,22.37,0,0,1-10.08-2,13.34,13.34,0,0,1-6-5.72,18.32,18.32,0,0,1-2-8.75,17.54,17.54,0,0,1,2.26-9A15.6,15.6,0,0,1,603.74,10a21.79,21.79,0,0,1,10-2.16,22.05,22.05,0,0,1,7.74,1.23,13.84,13.84,0,0,1,5.36,3.45,13.47,13.47,0,0,1,3,5.33h7.77a16.5,16.5,0,0,0-3.49-9.18,20.19,20.19,0,0,0-8.24-6A31.53,31.53,0,0,0,613.79.5a34.47,34.47,0,0,0-11.12,1.69,24.6,24.6,0,0,0-8.61,4.9,21.9,21.9,0,0,0-5.58,7.74,25.28,25.28,0,0,0-2,10.22,26.13,26.13,0,0,0,1.84,10.12,19.94,19.94,0,0,0,5.33,7.49A23.56,23.56,0,0,0,602,47.3a35,35,0,0,0,10.87,1.58q9,0,14.62-5a19.34,19.34,0,0,0,5.68-9.44c-.09.78-.18,1.58-.28,2.42q-.36,3-.58,5.94T632.08,48h7.41V25.41Z"/><polygon class="cls-1" points="690.54 1.36 690.54 36.59 657.85 1.36 649.57 1.36 649.57 48.02 657.85 48.02 657.85 12.93 690.54 48.02 698.89 48.02 698.89 1.36 690.54 1.36"/><path class="cls-1" d="M718.4,28.22V40.89h33.12V48h-41.4V1.36h41.33V8.49H718.4V21.38h27.07v6.84Z"/><path class="cls-1" d="M799.33,28a31.33,31.33,0,0,0-4.48-.7,24.82,24.82,0,0,0,3-.67,14.09,14.09,0,0,0,4.5-2.2,9.71,9.71,0,0,0,3-3.7,12.77,12.77,0,0,0,1.08-5.51,13.57,13.57,0,0,0-2.09-7.81,12.27,12.27,0,0,0-5.9-4.54,25.26,25.26,0,0,0-9.08-1.48H761.46V48h8.28V30.16H786.3a28.18,28.18,0,0,1,6.7.62,5.17,5.17,0,0,1,3.31,2.12,8.12,8.12,0,0,1,.93,4.25V48h8.35V36.72c0-2.64-.52-4.64-1.58-6A8.2,8.2,0,0,0,799.33,28ZM769.74,23.4V8.64h19.65q4.32,0,6.56,1.8a6.28,6.28,0,0,1,2.23,5.18A7.45,7.45,0,0,1,796,21.27q-2.24,2.13-6.56,2.13Z"/></g></g></svg>