<svg width="264" height="258" viewBox="0 0 264 258" fill="none" xmlns="http://www.w3.org/2000/svg">
<circle cx="155.168" cy="149.979" r="108.021" fill="#292929"/>
<circle cx="141.436" cy="141.74" r="105.521" fill="white" stroke="#292929" stroke-width="5"/>
<path d="M215.586 132.78C215.586 176.897 182.183 212.661 140.978 212.661C99.7737 212.661 66.3706 176.897 66.3706 132.78" stroke="#292929" stroke-width="5" stroke-linecap="round"/>
<path d="M145.278 113.362C145.278 117.115 144.975 120.756 144.023 124.39C143.017 128.231 138.982 131.264 135.709 133.165C134.075 134.114 131.825 134.686 130.022 135.266C127.749 135.996 125.41 136.529 123.272 137.623C121.758 138.397 120.514 139.357 120.389 141.158C120.254 143.117 121.831 144.358 123.323 145.359C124.734 146.307 126.814 146.386 128.447 146.794C130.092 147.205 131.754 147.43 133.404 147.832C136.385 148.557 138.858 149.401 141.102 151.521C143.431 153.72 143.664 158.069 143.664 161.038C143.664 162.208 143.664 168.964 143.664 170.134" stroke="#292929" stroke-width="5" stroke-linecap="round"/>
<circle cx="101.868" cy="97.0211" r="7.46078" fill="#292929"/>
<circle cx="176.983" cy="97.0211" r="7.46078" fill="#292929"/>
<path d="M10.4191 162.765L9.76851 159.045L18.3108 157.551L16.7504 148.63L8.20808 150.124L7.55744 146.405L28.0148 142.826L28.6654 146.546L19.9971 148.062L21.5575 156.983L30.2259 155.466L30.8765 159.186L10.4191 162.765Z" fill="#292929"/>
<path d="M28 142.408L7.232 135.336V130.6L28 123.816V127.784L23.52 129.224V136.936L28 138.408V142.408ZM20.672 135.976V130.12L11.744 133.032L20.672 135.976Z" fill="#292929"/>
<path d="M25.3425 115.516L9.77468 107.595L10.4135 103.679L29.7618 114.065L29.1231 117.981L7.49261 121.586L8.13653 117.638L25.4043 115.137L25.3425 115.516Z" fill="#292929"/>
<path d="M31.4317 106.113L11.7023 99.628L15.8693 86.9513L18.9701 87.9706L15.9822 97.0601L21.1806 98.7689L23.9885 90.2265L27.0893 91.2458L24.2813 99.7881L29.4797 101.497L32.4675 92.4074L35.5987 93.4366L31.4317 106.113Z" fill="#292929"/>
<path d="M38.1083 87.5368L23.8856 70.8323L26.3095 66.7636L47.6235 71.5642L45.5927 74.9731L41.0069 73.9174L37.06 80.5429L40.1555 84.1003L38.1083 87.5368ZM35.1045 78.2606L38.1016 73.2296L28.9411 71.1621L35.1045 78.2606Z" fill="#292929"/>
<path d="M58.3658 60.2002C57.1841 61.4167 55.7962 62.2025 54.2022 62.5576C52.6082 62.9127 50.9549 62.8235 49.2424 62.2902C47.5296 61.7418 45.9043 60.7207 44.3664 59.2269C43.1499 58.0452 42.2305 56.8101 41.6083 55.5217C40.9935 54.2257 40.6541 52.9294 40.59 51.6329C40.5259 50.3364 40.7341 49.0887 41.2145 47.8899C41.6873 46.6836 42.4105 45.5794 43.3841 44.577C44.7367 43.1845 46.1723 42.3112 47.6909 41.9573C49.217 41.5956 50.8867 41.7826 52.7003 42.5181L50.6451 45.9198C49.631 45.6932 48.7105 45.6764 47.8836 45.8694C47.0564 46.0474 46.3307 46.4577 45.7064 47.1005C44.9929 47.835 44.5606 48.7163 44.4096 49.7444C44.251 50.765 44.3987 51.8453 44.8528 52.9853C45.3068 54.1253 46.0886 55.2341 47.198 56.3117C48.2386 57.3225 49.3015 58.0501 50.3866 58.4944C51.4792 58.9311 52.5222 59.0744 53.5158 58.9242C54.5093 58.774 55.3739 58.3201 56.1097 57.5626C56.734 56.9199 57.1499 56.2086 57.3573 55.4286C57.5645 54.6336 57.5415 53.8305 57.2883 53.0195C57.0426 52.2009 56.541 51.4237 55.7835 50.6879L56.3632 50.0911C57.6027 51.2951 58.5328 52.4885 59.1534 53.6713C59.7815 54.8465 60.0432 55.9855 59.9386 57.0883C59.8339 58.1912 59.3097 59.2284 58.3658 60.2002ZM61.924 55.894L58.2625 53.0959L55.6917 50.5987L52.3676 53.8831L50.646 52.2109L56.4208 46.2658L64.0644 53.6905L61.924 55.894Z" fill="#292929"/>
<path d="M72.1975 48.3313C70.7052 49.4168 69.147 50.0491 67.5229 50.228C65.9074 50.4007 64.3024 50.0711 62.708 49.2392C61.1136 48.4073 59.6136 47.0252 58.2081 45.093C56.7775 43.1263 55.9182 41.265 55.6302 39.5092C55.336 37.7447 55.5291 36.1335 56.2097 34.6755C56.8926 33.2027 57.9802 31.9235 59.4725 30.838C60.9734 29.7462 62.5359 29.1108 64.16 28.9318C65.7779 28.7443 67.3809 29.0621 68.969 29.8854C70.5572 30.7087 72.0509 32.0821 73.4501 34.0057C74.8745 35.9638 75.7369 37.8294 76.0374 39.6025C76.338 41.3756 76.1499 43.0029 75.4732 44.4844C74.7903 45.9572 73.6984 47.2395 72.1975 48.3313ZM70.1833 45.5624C71.5549 44.5647 72.2652 43.2566 72.3145 41.6379C72.3724 40.013 71.6923 38.2258 70.2742 36.2763C68.9063 34.3959 67.4373 33.2287 65.8673 32.7748C64.3058 32.3146 62.8394 32.5833 61.4678 33.581C60.1222 34.5599 59.4267 35.8704 59.3814 37.5126C59.3298 39.1461 59.9911 40.9074 61.3652 42.7965C62.777 44.7373 64.2648 45.9304 65.8286 46.3757C67.3861 46.8124 68.8377 46.5413 70.1833 45.5624Z" fill="#292929"/>
<path d="M87.6937 39.1192C86.0369 39.9318 84.3931 40.2865 82.7624 40.1834C81.1413 40.0755 79.617 39.4747 78.1895 38.3809C76.762 37.2871 75.5222 35.6675 74.47 33.5223C73.3991 31.3388 72.8729 29.3574 72.8913 27.5782C72.905 25.7894 73.3725 24.2354 74.2937 22.9163C75.2199 21.5829 76.5113 20.51 78.1681 19.6974C79.8345 18.8801 81.483 18.523 83.1137 18.6262C84.7397 18.7197 86.2641 19.3086 87.6869 20.3929C89.1097 21.4771 90.3449 23.0871 91.3923 25.2227C92.4585 27.3967 92.9871 29.3828 92.9781 31.1812C92.9691 32.9796 92.5039 34.5502 91.5824 35.8932C90.6563 37.2266 89.36 38.3019 87.6937 39.1192ZM86.1859 36.045C87.7086 35.2982 88.6335 34.1318 88.9605 32.5457C89.2971 30.955 88.9346 29.0775 87.8731 26.9131C86.8491 24.8253 85.6029 23.4228 84.1343 22.7055C82.6753 21.9836 81.1845 21.996 79.6618 22.7428C78.1678 23.4755 77.2572 24.6469 76.93 26.2568C76.5981 27.8571 76.9465 29.7059 77.9751 31.8032C79.032 33.958 80.2923 35.3893 81.7562 36.097C83.2154 36.7951 84.6919 36.7778 86.1859 36.045Z" fill="#292929"/>
<path d="M91.4913 14.3913L97.9499 12.5355C99.9798 11.9523 101.876 11.8513 103.64 12.2325C105.4 12.6035 106.92 13.4151 108.201 14.6674C109.482 15.9197 110.416 17.5659 111.002 19.606C111.582 21.6256 111.662 23.506 111.241 25.2473C110.818 26.9783 109.96 28.4734 108.668 29.7324C107.376 30.9915 105.715 31.9126 103.685 32.4959L97.2266 34.3517L91.4913 14.3913ZM96.066 16.6394L99.919 30.0488L102.749 29.2358C104.04 28.8646 105.069 28.2529 105.834 27.4004C106.609 26.5451 107.103 25.5429 107.317 24.3939C107.538 23.2316 107.464 22.0098 107.096 20.7283C106.722 19.4263 106.134 18.3466 105.333 17.4892C104.542 16.6289 103.592 16.0472 102.484 15.7441C101.384 15.4278 100.187 15.4552 98.8955 15.8264L96.066 16.6394Z" fill="#292929"/>
<path d="M119.799 8.01873L126.512 7.70765C128.621 7.60989 130.49 7.95043 132.117 8.72927C133.744 9.49746 135.035 10.6389 135.992 12.1536C136.948 13.6683 137.475 15.4858 137.574 17.6062C137.671 19.7053 137.313 21.5531 136.501 23.1498C135.688 24.7358 134.508 25.9918 132.96 26.9178C131.412 27.8437 129.583 28.3556 127.473 28.4534L120.76 28.7645L119.799 8.01873ZM123.729 11.2643L124.375 25.2013L127.316 25.065C128.659 25.0028 129.801 24.6456 130.742 23.9933C131.694 23.3405 132.407 22.4799 132.881 21.4115C133.365 20.332 133.576 19.1262 133.514 17.7943C133.451 16.4411 133.129 15.2547 132.548 14.2352C131.978 13.2152 131.189 12.4295 130.181 11.8783C129.183 11.3159 128.013 11.0658 126.67 11.128L123.729 11.2643Z" fill="#292929"/>
<path d="M137.725 28.0141L147.373 8.31061L152.071 8.91121L156.167 30.3719L152.231 29.8686L151.37 25.2422L143.721 24.2642L141.692 28.5214L137.725 28.0141ZM145.034 21.5609L150.843 22.3036L149.086 13.0784L145.034 21.5609Z" fill="#292929"/>
<path d="M160.054 10.0914L164.355 11.3449L166.619 21.3041L165.913 21.0982L173.357 13.9683L177.627 15.2128L167.119 24.8496L164.72 33.0831L161.094 32.0265L163.494 23.7931L160.054 10.0914Z" fill="#292929"/>
<path d="M175.436 29.5056L180.587 16.2579L184.36 17.8535L178.412 30.7646L175.436 29.5056ZM174.111 36.8672C173.394 36.5639 172.901 36.1005 172.632 35.4771C172.367 34.8439 172.378 34.1883 172.665 33.5105C172.939 32.8621 173.397 32.4075 174.04 32.1468C174.684 31.886 175.364 31.9073 176.081 32.2106C176.778 32.5056 177.267 32.9788 177.548 33.6302C177.828 34.2815 177.831 34.9314 177.557 35.5798C177.27 36.2576 176.798 36.7179 176.139 36.9605C175.485 37.1933 174.809 37.1622 174.111 36.8672Z" fill="#292929"/>
</svg>
