<?xml version="1.0" encoding="UTF-8"?>
<svg width="1103px" height="474px" viewBox="0 0 1103 474" version="1.1" xmlns="http://www.w3.org/2000/svg" xmlns:xlink="http://www.w3.org/1999/xlink">
    <!-- Generator: Sketch 49.3 (51167) - http://www.bohemiancoding.com/sketch -->
    <title>Group 3</title>
    <desc>Created with Sketch.</desc>
    <defs></defs>
    <g id="Page-2" stroke="none" stroke-width="1" fill="none" fill-rule="evenodd">
        <g id="Mac-Pro-13&quot;" transform="translate(-3.000000, 0.000000)" stroke="#444444">
            <g id="Group" transform="translate(554.000000, 236.500000) scale(1, -1) translate(-554.000000, -236.500000) translate(4.000000, 0.000000)">
                <g id="Group-3">
                    <path d="M56.1239481,422.443918 C63.1373243,414.976621 66.90305,408.670625 67.4409868,403.559693 C67.7624328,400.505638 67.2005054,397.653203 65.2923777,390.824522 C65.248005,390.665719 65.248005,390.665719 65.2036388,390.506856 C63.6002441,384.764205 63.0182672,382.006156 63.0363762,379.048722 C63.0605542,375.100152 64.4819719,372.179331 67.679687,370.247426 C77.6624388,364.216331 86.6188979,361.067407 97.666314,360.77963 C111.618177,360.416194 127.733817,364.984858 147.050147,375.559753 C153.500718,379.091175 158.42165,387.442538 163.907854,401.774118 C164.606001,403.597883 165.291499,405.450848 166.195979,407.941813 C166.439885,408.613537 167.272047,410.912664 167.27989,410.934309 C167.704895,412.107203 168.023735,412.98214 168.331874,413.818923 C169.981111,418.297603 171.170668,421.231672 172.335928,423.564244 C172.868611,424.630548 173.382233,425.535355 173.884541,426.285899 C178.306534,432.893197 184.209898,440.569275 191.593997,449.312391 C198.668356,453.915026 207.957264,450.858105 219.519857,439.975275 C229.43323,430.644709 234.746326,428.172379 242.55344,427.605541 C242.818777,427.586277 243.049094,427.570491 243.497388,427.54044 C247.43206,427.276682 249.273567,427.00818 252.010039,426.089968 C252.998252,425.758377 254.039359,425.195183 255.76839,424.097881 C256.222719,423.809549 257.982117,422.672765 258.275969,422.484466 C259.402995,421.762273 260.382,421.151798 261.423926,420.528186 C267.503515,416.889439 274.463168,413.611949 283.935086,410.277686 C285.276454,409.805503 287.760549,409.377014 291.810491,408.866347 C293.859401,408.607994 301.834969,407.695548 302.642871,407.599384 C309.592029,406.772225 314.156326,406.064498 317.415896,405.20764 C318.809098,404.841403 320.213991,404.763866 323.816898,404.738661 C325.767303,404.725017 326.635614,404.709922 327.730061,404.656612 C332.896604,404.404952 336.198399,403.337862 338.128374,400.777327 C340.581309,397.522972 340.578296,391.866068 337.57656,383.128233 C331.221966,364.630474 315.491671,349.674213 290.32182,338.250979 C283.078943,334.418019 277.468438,332.262625 273.513518,331.781474 C244.657003,328.270829 231.924355,324.539299 227.896665,317.746623 C226.385699,315.198389 226.386466,312.732322 227.262514,305.82567 C227.531742,303.703108 227.658793,302.556676 227.747708,301.269519 C227.817377,300.260974 227.84503,299.330763 227.82685,298.446564 C227.689434,291.763517 236.021933,280.807707 243.251459,278.759733 C243.256582,278.738311 243.261888,278.714187 243.267243,278.687518 C243.307413,278.48746 243.343142,278.188669 243.384263,277.724818 C243.403355,277.509458 243.499449,276.30992 243.53304,275.926962 C243.606191,275.093 243.684881,274.351661 243.784984,273.600832 C244.049343,271.618002 244.437499,269.791288 245.00935,268.060215 C247.17838,261.494258 251.625793,257.388036 259.149603,256.808357 C259.489762,256.782149 259.85289,256.751809 260.304888,256.712271 C260.557964,256.690133 261.443957,256.611258 261.52168,256.60439 C264.942383,256.302118 266.973314,256.20657 269.213594,256.330068 C273.80316,256.583075 277.465144,257.846882 280.300013,260.538258 C281.749094,261.91399 282.802916,263.688286 284.418353,267.101496 C284.496961,267.267586 285.199119,268.762318 285.409628,269.203768 C288.08667,274.817701 290.203143,277.521585 293.735171,278.718123 C300.284893,280.936958 321.596087,274.753584 325.151617,269.419602 C327.571024,265.790023 327.982305,262.620141 326.748139,259.49058 C325.780475,257.036806 324.176388,255.033176 320.576523,251.341368 C320.439211,251.200549 320.307601,251.065788 320.03793,250.789745 C316.172466,246.83213 314.565724,244.888607 313.393329,242.269114 C311.829072,238.77408 312.005573,235.20435 314.240218,231.236813 C315.461613,229.068267 316.111296,226.579931 317.242823,220.685938 C317.299084,220.392811 317.299084,220.392811 317.355461,220.099367 C318.558013,213.844566 319.345442,210.987644 320.873418,208.562651 C322.859169,205.411139 323.71566,202.505884 324.90876,196.177533 C326.96062,185.294215 328.671548,180.552351 334.203374,174.338787 C335.300007,173.107005 336.709595,172.026112 338.799875,170.72442 C339.648481,170.195963 342.817313,168.327404 343.300551,168.034616 C345.192394,166.88837 346.706004,165.88236 348.165871,164.764663 C350.50892,162.970789 352.548712,160.996388 354.371701,158.667924 C355.596458,157.103567 356.372446,155.062261 357.596492,150.739157 C357.661312,150.510227 357.883381,149.722645 357.914036,149.61417 C358.040646,149.16614 358.140214,148.816784 358.238267,148.477739 C359.878753,142.805274 361.346371,139.698651 363.945723,137.61681 C364.142042,137.459577 375.879623,127.668781 380.147051,124.359602 C386.850283,119.161577 392.863508,115.13478 398.576678,112.22465 C409.065191,106.882093 417.869349,105.701259 424.774641,109.660738 C434.951852,115.496328 441.713298,121.476664 444.148506,127.825231 C444.917816,129.830818 445.198337,131.492476 445.567059,135.200273 C445.838992,137.934781 445.9956,139.111734 446.347601,140.603492 C447.087554,143.739369 448.464066,146.318511 450.922155,148.735858 C452.718486,150.502415 453.714679,150.615546 455.286379,149.765425 C455.429126,149.688214 455.287639,149.76812 455.848429,149.449912 C458.871233,147.734687 461.074603,148.085245 465.198554,152.320534 C466.364797,153.518264 466.019932,154.502716 463.73187,158.845028 C463.281625,159.699508 462.980402,160.302673 462.71408,160.901983 C461.60157,163.40549 461.49091,165.126244 462.605178,166.395068 C463.289738,167.174583 464.3965,167.395285 467.394474,167.535835 C468.75402,167.599572 469.291865,167.632344 470.031702,167.71121 C473.564846,168.08784 475.924027,169.246917 477.400288,171.926342 C478.770356,174.413028 479.274886,178.444273 479.43312,185.314027 C479.453659,186.205723 479.464521,186.847498 479.489982,188.536051 C479.603377,196.056338 479.857304,198.809688 480.790029,199.806582 C481.442096,200.50351 483.806002,201.014487 489.852463,201.939359 C489.874997,201.942806 489.874997,201.942806 489.897532,201.946253 C497.855509,203.16351 499.909288,203.65693 499.909288,205.160688 C499.909288,205.421394 499.881295,205.800805 499.81644,206.488491 C499.804352,206.616664 499.795391,206.709964 499.772415,206.947484 C499.748613,207.192792 499.748613,207.192792 499.723436,207.45317 C499.68165,207.886646 499.649039,208.235081 499.617278,208.592318 C499.339639,211.715101 499.244163,214.355628 499.405608,216.930566 C499.733706,222.163475 501.112706,225.866863 503.813114,227.544544 C513.923924,233.826079 520.818325,236.36075 531.427843,236.36075 C532.513337,236.36075 533.610332,236.246962 534.731048,236.021821 C538.128646,235.339276 541.652912,233.690911 546.322986,230.774603 C548.312875,229.531982 557.309131,223.486627 559.907725,221.847582 C565.718123,218.182713 570.990058,215.376506 576.694461,213.091385 C580.61102,211.649796 581.825155,210.185448 583.218359,206.503081 C583.34929,206.157018 583.390674,206.048207 583.457253,205.876422 C585.36325,200.958632 588.517657,198.596731 597.941501,196.984372 C600.872275,196.482935 601.551416,196.562018 612.498086,198.275007 C620.401741,199.51181 626.128668,199.991949 632.704194,199.648869 C644.898482,199.012628 669.093526,196.377756 705.248,191.749466 C738.784508,185.439559 762.792042,185.439559 777.301813,191.782709 C782.508825,194.059028 794.904884,199.075669 796.764863,199.916825 C799.2753,201.052144 801.276893,202.11928 803.222017,203.385169 C806.570801,205.564562 809.913575,208.448537 814.616329,213.209227 C820.662921,219.330311 821.84419,223.065688 821.306962,228.861198 C821.101686,231.075685 821.106665,231.866075 821.45995,232.915121 C821.867305,234.124724 822.771193,235.253838 824.399305,236.458855 L824.49945,236.557578 C826.405982,239.05793 829.895905,240.494471 837.952734,242.666176 C838.330381,242.767971 839.687617,243.132088 839.644948,243.120625 C840.328613,243.304298 840.846909,243.444583 841.353242,243.58347 C847.554896,245.284585 851.286048,246.675318 854.325788,248.720925 C858.500406,251.530254 861.580105,254.737703 867.435257,261.777579 C867.445812,261.79027 868.178775,262.671903 868.389428,262.924984 C877.475098,273.840596 882.490666,277.926082 890.284474,278.694097 C893.923185,279.052661 898.516082,275.483429 907.130523,266.638722 C907.47801,266.281947 907.836272,265.913023 908.297258,265.437515 C916.374633,257.10569 919.256361,254.434671 922.674393,252.742659 C929.622806,249.303019 941.506827,254.871098 958.449931,269.316442 L958.636078,269.475147 L954.812909,354.016326 L954.756597,354.225241 C951.856563,359.776926 949.061328,362.593234 946.274529,362.593234 C945.617472,362.593234 946.064499,362.938042 943.484298,360.742544 C941.778694,359.291243 940.127588,358.147412 937.85037,356.9989 C934.009402,355.061712 929.113846,353.561877 922.821652,352.612939 C921.489522,352.412038 920.117761,351.937099 918.582003,351.18753 C917.368129,350.595066 916.515933,350.102322 914.182336,348.690751 C907.808993,344.835577 904.762471,343.859565 900.868831,345.523276 C898.902245,346.363577 896.868941,347.659596 894.379129,349.577129 C893.296905,350.410606 892.689995,350.902999 890.373394,352.806751 C884.690723,357.476694 881.821045,359.445286 878.235576,360.631324 C876.316502,361.266134 874.276795,361.659819 871.939793,361.891126 C870.303709,362.053059 869.020631,362.113825 866.085636,362.203076 C858.371783,362.437648 855.224142,363.006193 851.93355,365.462719 C840.007184,374.36611 836.087588,379.306089 828.263386,396.815468 C826.911678,399.840387 825.367122,402.556672 823.551494,405.217168 C821.998895,407.492238 816.630132,414.244643 815.692484,415.672525 C811.820306,421.569201 811.989103,426.927225 817.458292,436.935732 C817.581598,437.161379 819.560678,440.768044 820.150658,441.853619 C821.165306,443.720591 821.99701,445.285369 822.765767,446.784617 C827.978656,456.950922 830.009705,463.742418 828.274969,468.361517 L828.153057,468.686133 L21.1471192,467.739175 L21.2736448,467.137073 C21.5415183,465.862333 21.2831241,464.252282 20.5608862,462.070916 C20.3741571,461.506941 20.1684332,460.934965 19.8740023,460.14881 C18.8339343,457.371741 18.7631331,457.173292 18.5320801,456.245875 C18.0218054,454.1977 17.175771,452.592472 15.7211,450.575674 C15.7179802,450.571349 14.3559803,448.730242 14.0037043,448.212907 C12.1682603,445.517468 11.7407469,443.317078 12.928363,440.16317 C16.2991861,431.211399 30.7019973,425.354144 56.1239481,422.443918 Z" id="Path-Copy"></path>
                    <path d="M103.408637,444.047781 C112.680379,450.09608 124.829556,446.104087 139.915423,431.905117 C152.778491,419.798267 159.653479,416.599146 169.767136,415.864841 C170.111714,415.839823 170.410923,415.819315 170.993438,415.780267 C176.120435,415.436582 178.524867,415.086003 182.097569,413.887197 C183.396896,413.451213 184.758713,412.714529 187.016084,411.281925 C187.607332,410.906699 189.894946,409.428624 190.27649,409.184132 C191.740433,408.246045 193.011893,407.453204 194.364939,406.643381 C202.259832,401.918141 211.298267,397.661696 223.60222,393.330512 C225.331982,392.721609 228.555887,392.165507 233.809204,391.503103 C236.471766,391.167374 246.839233,389.981283 247.890264,389.856178 C256.930979,388.780061 262.869271,387.859287 267.115601,386.743035 C268.909479,386.27147 270.730807,386.170949 275.399819,386.138287 C277.937431,386.120535 279.067619,386.100888 280.493178,386.031449 C287.250275,385.702314 291.580302,384.302915 294.123472,380.928843 C297.348921,376.649579 297.344979,369.247481 293.428192,357.846 C285.152341,333.755602 264.672671,314.283667 231.925329,299.421724 C222.494755,294.431025 215.18607,291.62324 210.02249,290.995046 C172.56413,286.437911 156.032077,281.592897 150.831489,272.822137 C148.891919,269.551063 148.892911,266.360324 150.026877,257.420276 C150.377218,254.658229 150.542621,253.165736 150.658466,251.488743 C150.749328,250.173405 150.785407,248.959721 150.761674,247.80548 C150.66412,243.061047 155.858061,229.508617 162.480607,218.437315 C171.182933,203.889119 181.192815,194.610467 191.342808,193.828451 C191.785607,193.794335 192.258157,193.754854 192.846228,193.703412 C193.175364,193.674621 194.327251,193.572075 194.428189,193.563156 C198.868365,193.170798 201.502986,193.046848 204.406217,193.206893 C210.340081,193.534006 215.067407,195.165478 218.723542,198.636549 C220.589465,200.408025 221.952827,202.703487 224.045079,207.124145 C224.147099,207.339702 225.060036,209.283133 225.333923,209.857492 C228.830461,217.18996 231.602261,220.731054 236.244395,222.30366 C244.820871,225.209094 272.597203,217.149882 277.258716,210.156711 C280.430519,205.398393 280.971854,201.226135 279.348923,197.110756 C278.081126,193.895914 275.987437,191.280732 271.293676,186.467089 C271.115122,186.283975 270.943983,186.108738 270.593418,185.74989 C265.581033,180.61801 263.499314,178.099955 261.985042,174.716601 C259.971011,170.216636 260.197988,165.626023 263.07978,160.5095 C264.678818,157.67046 265.525344,154.428202 266.999782,146.74803 C267.072922,146.36696 267.072922,146.36696 267.146203,145.985529 C268.70566,137.874364 269.726709,134.169834 271.699153,131.039441 C274.293811,126.921554 275.41119,123.131358 276.965592,114.886615 C278.321336,107.695581 278.940732,104.98871 280.348688,101.08654 C282.257145,95.7972226 284.998053,91.0781908 289.013221,86.5681957 C290.427386,84.9797493 292.249696,83.5823765 294.955931,81.8971062 C296.05726,81.2112691 300.17562,78.7828039 300.805246,78.4013207 C303.268917,76.9086117 305.240888,75.5979553 307.14362,74.1411944 C310.199251,71.8017552 312.860057,69.2262491 315.23812,66.1888005 C316.846861,64.1339906 317.859714,61.4695875 319.456568,55.8297997 C319.54086,55.5320947 319.829565,54.5081878 319.869395,54.3672434 C320.033912,53.7850732 320.163274,53.3311815 320.290643,52.8907643 C322.414958,45.5453196 324.312981,41.5276235 327.660011,38.8469624 C327.917207,38.640972 343.174803,25.9139868 348.719886,21.6140498 C357.42727,14.8619052 365.237183,9.63194299 372.654565,5.85373483 C386.249174,-1.07098094 397.645844,-2.59952837 406.569221,2.51711607 C419.77195,10.0875314 428.539788,17.8424731 431.689809,26.0545522 C432.68355,28.6452271 433.046684,30.7962418 433.524714,35.60323 C433.878883,39.1646845 434.083059,40.699123 434.542692,42.6470188 C435.510881,46.7501493 437.313848,50.1283296 440.530427,53.2915952 C442.913869,55.6355323 444.280714,55.790756 446.380458,54.6550195 C446.567438,54.5538831 446.382809,54.6581541 447.113786,54.2433771 C450.983197,52.0477629 453.773214,52.4916569 459.087452,57.9493694 C461.734291,60.667668 468.773818,72.2387685 474.925797,83.404661 C476.690517,86.6076432 477.344802,91.83544 477.549897,100.73972 C477.576585,101.898383 477.590702,102.732454 477.623795,104.927159 C477.77234,114.778643 478.100716,118.339235 479.354307,119.67907 C480.009659,120.379508 489.622877,133.659618 493.096672,138.190769 C494.380792,139.865751 495.614497,141.439485 496.803764,142.915899 C502.079189,149.46507 506.320762,153.903315 509.314691,155.763351 C522.48038,163.942789 531.467978,167.247007 545.292998,167.247007 C546.714281,167.247007 548.150249,167.098058 549.616707,166.80346 C554.054959,165.911858 558.651053,163.762179 564.736134,159.962245 C567.325739,158.345121 579.021247,150.485908 582.396867,148.356759 C589.943257,143.596925 596.789032,139.952976 604.191414,136.987599 C609.329674,135.096331 610.935786,133.159228 612.760963,128.335116 C612.931018,127.885644 612.984743,127.744387 613.071094,127.521587 C615.528886,121.18007 619.584858,118.143111 631.786049,116.055566 C635.571207,115.40795 636.459273,115.511361 650.661123,117.733737 C660.945244,119.343046 668.399531,119.968006 676.960069,119.521357 C681.074377,119.306691 685.400658,118.54133 690.622378,117.190085 C692.741757,116.641644 694.971153,116.009448 697.821477,115.159972 C699.040127,114.79678 704.086782,113.26927 705.396226,112.878792 C716.842111,109.465612 724.884126,107.621257 734.146737,106.68604 C746.083508,105.480822 758.26164,106.202225 771.49177,109.253922 C788.491914,113.175219 800.113107,120.422144 809.497883,131.140137 C813.034698,135.179398 821.929116,147.688816 822.152791,147.971825 C826.1141,152.983955 829.454712,155.345418 833.82317,155.689605 C836.665948,155.913585 840.225897,151.532319 844.733857,142.867588 C846.18426,140.079776 847.651832,137.033534 849.664752,132.694496 C850.155709,131.636193 851.950071,127.74724 851.790631,128.09231 C852.635368,126.264085 853.260438,124.922781 853.864348,123.647736 C855.405163,120.39459 856.650818,117.916363 857.793173,115.875297 C860.684322,110.70963 862.872843,108.410313 864.869074,109.282993 C865.669492,109.632907 874.12099,112.899318 877.525056,114.335935 C884.473291,117.268297 890.789536,120.417175 896.776803,124.127136 C903.03476,128.004827 908.588236,132.303928 913.331316,137.105441 C921.15922,145.029783 922.680973,149.841827 921.986493,157.333743 C921.717657,160.23389 921.724215,161.274794 922.192581,162.665562 C922.732798,164.269683 923.927057,165.761522 926.066661,167.345111 L926.166807,167.443834 C928.674271,170.73229 933.225683,172.605766 943.736316,175.438891 C944.227359,175.571251 945.991863,176.04463 945.936315,176.029707 C946.824848,176.268419 947.498401,176.450727 948.156336,176.631199 C956.203481,178.838532 961.04245,180.642188 964.976579,183.289679 C970.387785,186.931176 974.384693,191.09388 981.987311,200.234801 C982.001007,200.251269 982.953887,201.397426 983.227769,201.726471 C988.999149,208.660263 992.192901,212.12394 996.094876,215.302337 C1001.10848,219.386221 1006.15638,221.7243 1011.79191,222.279634 C1016.59202,222.752645 1022.57192,218.105541 1033.81394,206.563027 C1034.26576,206.099124 1034.73158,205.619445 1035.33093,205.001209 C1045.81487,194.187019 1049.55946,190.716228 1053.98006,188.527919 C1062.93642,184.094291 1078.34338,191.312986 1100.32439,210.053551 L1100.51054,210.212256 L1095.54374,320.042479 L1095.48742,320.251393 C1091.7412,327.422978 1088.14208,331.049235 1084.59369,331.049235 C1083.79921,331.049235 1084.33205,331.46023 1081.0636,328.679098 C1078.83785,326.785207 1076.68186,325.291612 1073.70983,323.79267 C1068.70184,321.266894 1062.32238,319.312442 1054.12732,318.076529 C1052.41247,317.817909 1050.64304,317.205289 1048.6592,316.23702 C1047.08675,315.469541 1045.98101,314.830197 1042.95147,312.997662 C1034.626,307.961664 1030.63004,306.68148 1025.50734,308.870354 C1022.93703,309.968623 1020.28404,311.659623 1017.03814,314.159458 C1015.62948,315.244342 1014.83997,315.884881 1011.82698,318.360918 C1004.45417,324.419792 1000.73317,326.972393 996.095942,328.506341 C993.612642,329.327792 990.971601,329.83754 987.943758,330.137224 C985.82139,330.347288 984.155638,330.426177 980.343569,330.542099 C970.284792,330.847978 966.171972,331.590859 961.860684,334.809365 C946.335718,346.39922 941.224076,352.841567 931.042255,375.626943 C929.288845,379.550809 927.285317,383.074251 924.929845,386.525796 C922.915859,389.476952 915.935352,398.256482 914.711647,400.119978 C909.644867,407.835832 909.866149,414.859865 917.000952,427.916412 C918.049825,429.835828 919.194113,431.691888 920.475463,433.582736 C921.434222,434.997547 922.427925,436.374357 923.667611,438.02665 C924.023849,438.501455 926.083165,441.215141 926.634692,441.957209 C928.877277,444.974558 930.143888,446.995475 930.94743,449.038717 C932.040208,451.817432 932.113007,454.440136 931.053837,457.260396 C928.913179,462.960349 921.60964,468.143762 909.162001,472.882855 L908.98125,472.915568 L-0.540329424,467.736711 L-0.476027689,467.182293 C3.36366429,434.075961 9.82758702,414.768473 19.0512401,409.195988 C21.1439803,407.931656 21.9461766,404.515781 21.6439228,398.850905 C21.4116182,394.497024 20.8804506,391.021228 18.9562272,380.056095 C18.6888231,378.532301 18.498769,377.438269 18.3138442,376.352284 C15.7003887,361.004567 15.3125318,352.577264 17.9872149,347.059005 C21.5072019,339.796763 30.2560022,339.82542 45.529961,348.187283 C62.7037724,357.589238 72.6747706,366.888683 77.1809293,376.558562 C80.5324778,383.750734 80.7668175,389.487461 79.3709886,399.509269 C78.168498,408.142942 78.2030121,410.85712 80.3620464,414.083128 C86.1169035,422.681979 93.7993123,432.670778 103.408637,444.047781 Z" id="Path"></path>
                </g>
            </g>
        </g>
    </g>
</svg>