<?xml version="1.0" encoding="UTF-8"?>
<svg width="1008px" height="423px" viewBox="0 0 1008 423" version="1.1" xmlns="http://www.w3.org/2000/svg" xmlns:xlink="http://www.w3.org/1999/xlink">
    <!-- Generator: Sketch 49.3 (51167) - http://www.bohemiancoding.com/sketch -->
    <title>Group 5</title>
    <desc>Created with Sketch.</desc>
    <defs></defs>
    <g id="Page-2" stroke="none" stroke-width="1" fill="none" fill-rule="evenodd">
        <g id="Group-5" transform="translate(1.000000, 1.000000)" stroke="#444444">
            <path d="M38.5366785,380.202499 C44.759601,373.565183 48.0995168,367.962226 48.5762172,363.427219 C48.8611787,360.716286 48.3619334,358.178744 46.6664709,352.103257 C46.6269955,351.961797 46.6269955,351.961797 46.5875243,351.820278 C45.1597124,346.699846 44.6413497,344.240082 44.6575018,341.598825 C44.6791194,338.063818 45.9523331,335.444138 48.8146786,333.712602 C57.7031018,328.335674 65.6798019,325.527573 75.5186491,325.270945 C87.9411716,324.946927 102.287366,329.019248 119.479586,338.443503 C125.233861,341.597822 129.616081,349.044588 134.501382,361.823004 C135.122598,363.447912 135.732527,365.098746 136.537266,367.317899 C136.75426,367.916284 137.494575,369.96431 137.501544,369.983568 C137.879607,371.02827 138.163224,371.80756 138.437311,372.55284 C139.903855,376.540566 140.961511,379.152686 141.997015,381.22821 C142.469942,382.176126 142.925766,382.980158 143.371233,383.646635 C147.302829,389.528815 152.551626,396.362833 159.116993,404.146951 C165.382668,408.222849 173.61895,405.506522 183.88513,395.831342 C192.713195,387.511489 197.451673,385.303681 204.410236,384.797797 C204.646418,384.780626 204.851387,384.76656 205.250297,384.739784 C208.746219,384.505133 210.380559,384.266528 212.809295,383.450517 C213.683001,383.156968 214.606095,382.656966 216.140714,381.68178 C216.544664,381.425087 218.109709,380.412565 218.371296,380.244724 C219.374358,379.601132 220.245757,379.057051 221.173211,378.501231 C226.584888,375.258036 232.779692,372.336946 241.209613,369.365628 C242.408121,368.943187 244.620034,368.561152 248.227247,368.105719 C250.050375,367.875537 257.145869,367.062722 257.864311,366.977095 C264.043874,366.240586 268.102603,365.610434 270.999071,364.848037 C272.244915,364.520111 273.496609,364.45094 276.707312,364.42845 C278.44165,364.416301 279.2136,364.402864 280.186206,364.355428 C284.767449,364.131987 287.690789,363.185981 289.395186,360.921789 C291.564112,358.040497 291.561441,353.018786 288.896282,345.25063 C283.248518,328.789053 269.265651,315.476971 246.88383,305.305769 C240.445935,301.894384 235.460297,299.976559 231.950175,299.548968 C206.258658,296.419313 194.923791,293.093114 191.327732,287.020506 C189.974638,284.735558 189.975322,282.533436 190.756435,276.367239 C190.995821,274.477496 191.108764,273.457052 191.187773,272.311816 C191.249646,271.414953 191.2742,270.587932 191.258061,269.802032 C191.135502,263.833795 198.540304,254.074921 204.98859,252.220908 C204.990751,252.210975 204.992945,252.200489 204.995155,252.189467 C205.03039,252.01376 205.061997,251.749091 205.098413,251.337783 C205.115372,251.146242 205.200856,250.07776 205.230764,249.736352 C205.295906,248.992731 205.365992,248.33159 205.455164,247.66188 C205.690755,245.892528 206.036743,244.262148 206.546634,242.716634 C208.482676,236.848351 212.456613,233.174517 219.174232,232.65628 C219.476623,232.632952 219.799489,232.605941 220.201419,232.570737 C220.426509,232.551021 221.214667,232.480765 221.283849,232.474644 C224.329476,232.205166 226.138308,232.119956 228.134701,232.230153 C232.229743,232.456191 235.499842,233.586218 238.03254,235.99384 C239.328192,237.225507 240.268083,238.810035 241.708046,241.856443 C241.778039,242.004522 242.402644,243.335887 242.589834,243.728947 C244.965389,248.717109 246.840824,251.116169 249.964356,252.175695 C255.768167,254.144393 274.700364,248.644145 277.849003,243.914444 C279.991746,240.695741 280.35523,237.890605 279.263963,235.11981 C278.406673,232.943096 276.982706,231.16214 273.785266,227.878777 C273.663128,227.753357 273.546063,227.633333 273.306156,227.387439 C269.862747,223.857362 268.430786,222.123006 267.384235,219.781651 C265.985615,216.652644 266.143522,213.454816 268.139893,209.905725 C269.222409,207.981258 269.799684,205.767381 270.805065,200.523671 C270.855115,200.262564 270.855115,200.262564 270.905272,200.001155 C271.976478,194.422284 272.677926,191.874012 274.04228,189.705885 C275.804068,186.906185 276.564599,184.323079 277.624785,178.69242 C279.45185,168.988856 280.976686,164.757264 285.906261,159.212981 C286.886039,158.111027 288.143766,157.145331 290.007405,155.983269 C290.763025,155.512106 293.582488,153.8474 294.011863,153.586909 C295.693306,152.566819 297.038265,151.671742 298.335185,150.67751 C300.416058,149.082292 302.227372,147.326769 303.84615,145.256453 C304.929707,143.870652 305.618575,142.056169 306.705484,138.212425 C306.763139,138.008534 306.96069,137.306997 306.987968,137.210343 C307.10063,136.811153 307.189236,136.499859 307.276501,136.197723 C308.738927,131.134387 310.048111,128.359534 312.372274,126.495677 C312.546195,126.356202 322.988619,117.634438 326.785944,114.685977 C332.751769,110.053767 338.103922,106.465007 343.190054,103.870909 C352.535821,99.1042531 360.386298,98.049962 366.549211,101.588352 C375.613153,106.792344 381.636341,112.126627 383.808458,117.796674 C384.495144,119.589184 384.745255,121.072634 385.073747,124.38018 C385.315428,126.813631 385.454539,127.860445 385.766954,129.186161 C386.422972,131.969934 387.642651,134.25819 389.82174,136.403944 C391.402007,137.960036 392.261546,138.057775 393.638806,137.311858 C393.765275,137.243362 393.639663,137.314395 394.137831,137.031353 C396.849296,135.490793 398.837093,135.807464 402.523118,139.597921 C403.588062,140.693037 403.281056,141.570555 401.227513,145.472853 C400.827485,146.233018 400.559978,146.769367 400.323651,147.30187 C399.341626,149.514613 399.244472,151.0273 400.217918,152.137209 C400.812418,152.815049 401.789984,153.010241 404.439494,153.134616 C405.650108,153.191445 406.129262,153.220679 406.788923,153.291089 C409.94829,153.628312 412.06321,154.668732 413.386702,157.074 C414.61145,159.299814 415.060864,162.895339 415.201851,169.02426 C415.220127,169.818754 415.229791,170.390516 415.252444,171.894782 C415.352912,178.566391 415.579449,181.025934 416.394327,181.898005 C416.960653,182.504079 419.073765,182.961438 424.424348,183.780931 C424.444395,183.784001 424.444395,183.784001 424.464443,183.787072 C431.628561,184.884322 433.41783,185.314752 433.41783,186.704375 C433.41783,186.93895 433.392861,187.277811 433.334992,187.892214 C433.318172,188.070797 433.242026,188.857775 433.252244,188.751635 C433.215082,189.137642 433.186082,189.447894 433.15784,189.765958 C432.911068,192.54517 432.826219,194.894834 432.969642,197.185288 C433.260527,201.830716 434.481709,205.114534 436.864924,206.597075 C445.851672,212.187516 451.975833,214.441937 461.402108,214.441937 C462.364008,214.441937 463.33624,214.340959 464.329706,214.141123 C467.344335,213.534726 470.474205,212.068926 474.623613,209.474392 C476.392841,208.368132 484.395933,202.983186 486.708629,201.522575 C491.880293,198.256347 496.573161,195.755128 501.652839,193.717647 C505.119858,192.439865 506.189859,191.14768 507.424181,187.881018 C507.540715,187.572606 507.577559,187.475609 507.636861,187.322399 C509.339746,182.922967 512.162408,180.806718 520.564433,179.36732 C523.180949,178.919069 523.783198,178.989289 533.532275,180.516854 C540.560022,181.618019 545.651344,182.045424 551.49645,181.740057 C562.342844,181.173408 583.866255,178.826437 616.025304,174.70437 C645.870077,169.081772 667.23735,169.081772 680.15831,174.737686 C684.789494,176.764902 695.81769,181.233769 697.473625,181.983622 C699.709365,182.996025 701.492451,183.947899 703.225414,185.077179 C706.208378,187.021017 709.184951,189.592386 713.371137,193.835647 C718.762161,199.300175 719.81805,202.643414 719.338712,207.821133 C719.156805,209.786062 719.161205,210.485306 719.47222,211.410033 C719.830752,212.476044 720.62787,213.473077 722.067838,214.540226 L722.167923,214.639014 C723.853393,216.852321 726.952666,218.129717 734.106648,220.060566 C734.442573,220.151231 735.649959,220.475568 735.612028,220.465364 C736.220315,220.628998 736.681485,220.753984 737.132039,220.877731 C742.654696,222.394564 745.978273,223.634988 748.688951,225.46152 C752.408568,227.967905 755.15077,230.827565 760.362943,237.1025 C760.372342,237.113816 761.024389,237.899139 761.211777,238.124562 C769.285442,247.836937 773.739116,251.469437 780.652853,252.151612 C783.863987,252.468454 787.94662,249.291637 795.594161,241.42948 C795.903257,241.11171 796.221946,240.78311 796.63202,240.359569 C803.823929,232.931472 806.388152,230.551656 809.437312,229.040284 C815.647181,225.962251 826.235091,230.929498 841.324637,243.811243 L841.510518,243.969926 L838.108163,319.303409 L838.051973,319.512117 C835.463307,324.474168 832.963925,326.995663 830.457131,326.995663 C830.078605,326.995663 829.731473,326.822038 829.272078,326.46723 C829.113007,326.344373 828.944111,326.203392 828.693309,325.986556 C828.841895,326.115012 828.120226,325.488398 827.938881,325.333891 C826.424657,324.043762 824.959318,323.027306 822.937762,322.006412 C819.526226,320.283574 815.176705,318.949295 809.584708,318.10486 C808.393334,317.924953 807.16785,317.500108 805.796927,316.830123 C804.71498,316.301364 803.956072,315.861989 801.878532,314.603673 C796.223567,311.178596 793.526513,310.313422 790.085312,311.78572 C788.340886,312.532062 786.535593,313.684242 784.323981,315.389731 C783.361865,316.131668 782.822141,316.57012 780.761769,318.265505 C775.700952,322.429819 773.144518,324.185804 769.94598,325.245222 C768.234469,325.812108 766.415976,326.163552 764.333121,326.369972 C762.875943,326.514386 761.733656,326.568554 759.121357,326.648095 C752.270375,326.856698 749.477965,327.361734 746.562977,329.540687 C735.960642,337.465927 732.479588,341.858895 725.522798,357.447355 C724.318915,360.144962 722.943257,362.567361 721.326284,364.939838 C719.943467,366.968753 715.167726,372.983103 714.335308,374.252382 C710.902451,379.486835 711.051952,384.238528 715.908468,393.137397 C716.018116,393.338311 717.778785,396.551112 718.303705,397.518228 C719.206545,399.181628 719.946637,400.575854 720.630761,401.911783 C725.275483,410.981798 727.085156,417.040902 725.534357,421.175591 L725.412528,421.500407 L7.37944713,420.656757 L7.50578166,420.054784 C7.74162408,418.931015 7.51303204,417.50481 6.87328238,415.570074 C6.7074276,415.068494 6.5246204,414.559574 6.26291314,413.859886 C5.33649791,411.383068 5.27358726,411.206506 5.06728411,410.377357 C4.615271,408.560679 3.8656398,407.136516 2.5752346,405.345138 C2.57302065,405.342064 1.36066297,403.701111 1.04656222,403.239239 C-0.595523218,400.824625 -0.979322929,398.846663 0.0839822162,396.019215 C3.09180496,388.021078 15.9137807,382.797894 38.5366785,380.202499 Z M828.693309,325.986556 C828.684219,325.978698 828.675022,325.970739 828.665714,325.962679 C828.682296,325.977039 828.694876,325.987925 828.703835,325.995669 Z" id="Path-Copy"></path>
            <path d="M92.0540742,395.678612 C100.278349,401.044702 111.064105,397.493869 124.470766,384.85911 C135.928032,374.061509 142.058695,371.205064 151.073185,370.54972 C151.379999,370.527415 151.646375,370.509134 152.164922,370.474329 C156.723618,370.168346 158.85972,369.856489 162.033827,368.790057 C163.184843,368.40334 164.393802,367.748503 166.399353,366.47407 C166.925346,366.139827 168.961215,364.822713 169.300966,364.604721 C170.604337,363.76845 171.736415,363.061613 172.941184,362.339606 C179.970926,358.126749 188.018643,354.331972 198.972888,350.470934 C200.517589,349.926474 203.388929,349.430548 208.068766,348.839695 C210.438869,348.540457 219.666373,347.483422 220.601527,347.371967 C228.645392,346.41327 233.928827,345.592979 237.70484,344.599082 C239.307824,344.177155 240.930706,344.087471 245.091677,344.058325 C247.34942,344.042511 248.354793,344.02501 249.622534,343.96318 C255.621512,343.670595 259.461364,342.428013 261.71233,339.437762 C264.569831,335.641772 264.566332,329.06253 261.085547,318.917152 C253.725278,297.464317 235.509075,280.122134 206.373086,266.88199 C197.985194,262.437359 191.485891,259.937294 186.898433,259.37847 C153.539695,255.314856 138.818245,250.994908 134.176727,243.156921 C132.441597,240.22686 132.442482,237.37799 133.453489,229.397049 C133.765175,226.936585 133.912302,225.607293 134.015314,224.114139 C134.096078,222.943473 134.128143,221.863461 134.107055,220.836557 C134.019971,216.595844 138.645785,204.51025 144.544742,194.635894 C152.29828,181.657127 161.218936,173.377469 170.275649,172.678786 C170.669528,172.6484 171.089926,172.61323 171.613143,172.567403 C171.906029,172.54175 172.931192,172.450368 173.021066,172.442415 C176.975396,172.092539 179.322325,171.981981 181.909637,172.124794 C187.202913,172.41697 191.422599,173.875127 194.687329,176.978602 C196.354533,178.563458 197.570331,180.61311 199.435302,184.558635 C199.526163,184.750862 200.338645,186.482678 200.582327,186.994355 C203.688335,193.516257 206.147894,196.662501 210.260915,198.057657 C217.871267,200.639124 242.56614,193.464747 246.700593,187.254269 C249.51398,183.028202 249.993387,179.328478 248.555597,175.677872 C247.430785,172.821927 245.570413,170.49518 241.397934,166.210615 C241.239035,166.047447 241.086735,165.8913 240.774724,165.571505 C236.30901,160.993433 234.453681,158.746324 233.102398,155.723247 C231.302874,151.697368 231.505773,147.588433 234.078976,143.013906 C235.498103,140.491043 236.250833,137.604315 237.561865,130.766496 C237.62696,130.426901 237.62696,130.426901 237.692184,130.086967 C239.081517,122.851348 239.991201,119.546611 241.751731,116.748937 C244.056266,113.086777 245.049338,109.713888 246.431569,102.372908 C248.803133,89.7776141 250.778646,84.2953916 257.166936,77.1105589 C258.429745,75.6902931 260.055349,74.4421484 262.468018,72.9377552 C263.448902,72.3261358 267.114723,70.1617303 267.67458,69.822082 C269.865719,68.4927843 271.619237,67.3258188 273.310902,66.028983 C276.026934,63.9468653 278.391785,61.6548734 280.505327,58.9518108 C281.931145,57.1282955 282.831142,54.7577173 284.250351,49.7388741 C284.325363,49.4736042 284.58231,48.5611532 284.617766,48.4355221 C284.764217,47.916616 284.879378,47.5120264 284.992775,47.1194196 C286.88646,40.5630002 288.579285,36.9750419 291.569887,34.576757 C291.798071,34.3937671 305.378047,23.0515449 310.314205,19.2188625 C318.066423,13.1996488 325.020047,8.53710135 331.625223,5.16826963 C343.739595,-1.01041295 353.900895,-2.37502746 361.86262,2.19609523 C373.623346,8.94836595 381.434924,15.8664293 384.244188,23.1996044 C385.13092,25.5142873 385.454668,27.4344731 385.880592,31.7230135 C386.195573,34.8944891 386.377083,36.2603482 386.785436,37.9931528 C387.644891,41.6401692 389.244688,44.6415425 392.099854,47.4530055 C394.203441,49.5243939 395.39336,49.6596996 397.241291,48.6588781 C397.407188,48.5690297 397.243121,48.6618075 397.892985,48.2925806 C401.359069,46.3232896 403.869768,46.7232591 408.616752,51.6046895 C410.977532,54.032333 417.243212,64.3447188 422.721815,74.3012531 C424.298336,77.166341 424.881233,81.8297513 425.06399,89.7744257 C425.087747,90.8071796 425.100312,91.5505594 425.129768,93.5065508 C425.261567,102.258682 425.554463,105.438662 426.655342,106.616797 C427.241368,107.243947 435.800112,119.082609 438.889733,123.117849 C440.032368,124.610202 441.130119,126.012318 442.188298,127.327688 C446.879677,133.159305 450.65184,137.111464 453.309475,138.764701 C465.019178,146.048962 473.009101,148.990181 485.301503,148.990181 C486.562708,148.990181 487.837082,148.857823 489.138724,148.595998 C493.080937,147.803024 497.166176,145.889817 502.576846,142.506673 C504.880628,141.066181 515.289688,134.062422 518.294983,132.164408 C525.014018,127.920957 531.109721,124.67208 537.702886,122.027492 C542.258865,120.348385 543.678252,118.634279 545.29761,114.348645 C545.449018,113.947944 545.49686,113.82199 545.573787,113.623251 C547.768513,107.953186 551.394783,105.23447 562.272384,103.370983 C565.650451,102.792272 566.438924,102.884204 579.089493,104.866381 C588.239059,106.299996 594.870057,106.856649 602.484497,106.45885 C608.880591,106.124702 610.398486,105.731403 627.780166,100.541476 C637.970266,97.4988548 645.130833,95.8545331 653.378897,95.020678 C664.008803,93.9460257 674.853654,94.5892769 686.634686,97.310225 C701.776791,100.807447 712.129872,107.271908 720.489847,116.831829 C723.639865,120.433985 731.557173,131.58352 731.754681,131.833744 C735.271758,136.289538 738.233014,138.385537 742.102545,138.690807 C744.598586,138.887721 747.759932,134.992002 751.759964,127.293644 C753.050383,124.810135 754.356244,122.096062 756.14746,118.229949 C756.584392,117.286887 758.181375,113.821254 758.039492,114.12872 C758.791388,112.499327 759.347775,111.303867 759.885353,110.167407 C761.257184,107.267305 762.366329,105.057818 763.383758,103.237616 C765.972821,98.6057234 767.933289,96.54335 769.751793,97.3393598 C770.462805,97.6505898 777.984333,100.561326 781.015178,101.842083 C787.201672,104.456335 792.825709,107.263738 798.157171,110.571595 C803.730355,114.029426 808.676435,117.863262 812.901102,122.145491 C819.879894,129.21937 821.239272,133.523503 820.619768,140.215213 C820.381208,142.792072 820.387014,143.714891 820.800605,144.944595 C821.277563,146.362701 822.333502,147.683455 824.229386,149.088468 L824.329472,149.187255 C826.550581,152.103922 830.596008,153.77127 839.93718,156.292415 C840.374179,156.410359 841.944581,156.832208 841.895172,156.818917 C842.686066,157.031672 843.285625,157.194162 843.871309,157.355022 C851.038936,159.323639 855.349961,160.932583 858.85785,163.296279 C863.679695,166.545347 867.239447,170.257543 874.009217,178.407597 C874.021417,178.422284 874.869485,179.443686 875.113233,179.736904 C880.24766,185.91341 883.088452,188.998271 886.557679,191.827812 C891.012001,195.460808 895.494852,197.539843 900.49878,198.033574 C904.745127,198.452556 910.064063,194.313772 920.05368,184.043904 C920.455778,183.630524 920.870334,183.20308 921.403744,182.652158 C930.740727,173.008626 934.07406,169.915038 938.016857,167.960737 C946.082909,163.962688 958.299729,174.059072 974.873418,198.062507 C995.801681,200.682076 1006.35772,210.316565 1006.35772,226.896001 C1006.35772,243.395596 995.894357,262.914614 975.001534,285.4811 C971.669762,291.84947 968.463891,295.073751 965.288126,295.073751 C964.55894,295.073751 965.051118,295.453875 962.110404,292.948389 C960.132553,291.263262 958.21719,289.934652 955.576314,288.601011 C951.124553,286.352875 945.452366,284.612864 938.164252,283.512312 C936.631742,283.280894 935.051801,282.733172 933.28148,281.868004 C931.879915,281.18305 930.895012,280.61284 928.197153,278.978825 C920.802166,274.499899 917.25883,273.36326 912.722112,275.304251 C910.439554,276.280821 908.081912,277.78551 905.196364,280.010686 C903.943278,280.976997 903.240792,281.547665 900.559696,283.753797 C893.992383,289.157688 890.67712,291.434883 886.541106,292.8048 C884.326674,293.538257 881.972184,293.993283 879.273552,294.260728 C877.382925,294.448097 875.899544,294.518439 872.505469,294.621783 C863.564348,294.894026 859.911628,295.554652 856.086846,298.413649 C854.166514,299.849084 852.370549,301.0492 848.974857,303.221546 C848.947993,303.238732 848.029705,303.825892 847.763846,303.996123 C838.617559,309.852533 834.429632,313.354662 831.088764,319.009229 C830.172238,320.56049 830.026638,321.8794 830.120038,325.365366 C830.233719,329.60831 829.993733,331.812656 828.675089,334.767386 C827.113151,338.267276 825.328391,341.410038 823.23023,344.488502 C821.436156,347.120803 815.223793,354.9443 814.1364,356.602351 C809.638741,363.460364 809.835024,369.698918 816.176178,381.318067 C817.108821,383.026987 818.126359,384.679584 819.265855,386.363271 C820.118611,387.623279 821.002541,388.849576 822.105402,390.321398 C822.422306,390.744322 824.255235,393.162801 824.746301,393.824371 C826.744899,396.516908 827.874281,398.321196 828.591645,400.147661 C829.568979,402.636028 829.634151,404.986999 828.686649,407.513176 C826.774426,412.611436 820.262824,417.238761 809.17076,421.467203 L808.989805,421.499992 L-0.560889177,416.884429 L-0.496679162,416.330088 C2.92267568,386.809936 8.67934611,369.592808 16.9088686,364.614517 C18.7480598,363.501934 19.4581775,360.474245 19.1901648,355.44464 C18.9835754,351.567723 18.5109358,348.470927 16.7988033,338.701806 C16.5607949,337.343772 16.3916298,336.368731 16.2270254,335.400833 C13.8988678,321.710916 13.553418,314.195349 15.9409537,309.263165 C19.0918637,302.753998 26.9127096,302.779648 40.5306986,310.244551 C55.8250864,318.628397 64.7078156,326.923553 68.723893,335.552869 C71.712302,341.974041 71.9212347,347.095389 70.677611,356.035906 C69.6093647,363.715619 69.6399888,366.12699 71.5510576,368.986173 C76.6707007,376.645759 83.5052508,385.543819 92.0540742,395.678612 Z" id="Path"></path>
        </g>
    </g>
</svg>