<?xml version="1.0" encoding="utf-8"?>
<!-- Generator: Adobe Illustrator 16.0.0, SVG Export Plug-In . SVG Version: 6.00 Build 0)  -->
<!DOCTYPE svg PUBLIC "-//W3C//DTD SVG 1.1//EN" "http://www.w3.org/Graphics/SVG/1.1/DTD/svg11.dtd">
<svg version="1.1" id="Layer_1" xmlns="http://www.w3.org/2000/svg" xmlns:xlink="http://www.w3.org/1999/xlink" x="0px" y="0px"
	 width="100px" height="100px" viewBox="0 0 100 100" enable-background="new 0 0 100 100" xml:space="preserve">
<g>
	<path fill="#02243F" stroke="#02243F" stroke-miterlimit="10" d="M37.518,8.473c4.129,8.816,7.939,16.951,11.749,25.086
		c0.329,0.003,0.656,0.005,0.986,0.008c3.745-8.162,7.487-16.325,11.556-25.196C71.581,29.684,81.031,50.3,90.5,70.955
		c-4.609,1.179-5.135,0.925-6.84-2.783c-6.733-14.627-13.48-29.25-20.239-43.871c-0.373-0.809-0.86-1.573-1.542-2.806
		c-0.677,1.029-1.139,1.577-1.425,2.193c-2.312,5.016-4.706,10.005-6.806,15.097c-0.529,1.292-0.553,3.099,0,4.37
		c3.547,8.145,7.324,16.203,11.016,24.292c0.533,1.169,1.027,2.352,1.671,3.832c-11.173,0-21.951,0-33.232,0
		c1.421-3.17,2.689-6.041,3.993-8.9c2.872-6.304,5.882-12.557,8.56-18.928c0.61-1.453,0.599-3.477,0.003-4.941
		c-2-4.925-4.379-9.722-6.648-14.556c-0.336-0.716-0.851-1.362-1.628-2.581c-1.345,2.822-2.446,5.065-3.488,7.332
		c-6.062,13.185-12.099,26.38-18.167,39.562c-1.67,3.629-1.947,3.727-6.834,2.771C18.354,50.36,27.78,29.757,37.518,8.473z
		 M50.24,48.195c-0.346,0.026-0.691,0.053-1.039,0.079c-2.693,5.882-5.389,11.761-8.217,17.932c5.991,0,11.407,0,17.395,0
		C55.543,59.934,52.891,54.064,50.24,48.195z"/>
</g>
<text transform="matrix(1 0 0 1 15.7832 91.9473)" fill="#02243F" font-family="'Gotham-Bold'" font-size="13" letter-spacing="1">MUDMIE</text>
</svg>
