<?xml version="1.0" standalone="no"?>
<!DOCTYPE svg PUBLIC "-//W3C//DTD SVG 20010904//EN"
 "http://www.w3.org/TR/2001/REC-SVG-20010904/DTD/svg10.dtd">
<svg version="1.0" xmlns="http://www.w3.org/2000/svg"
 width="900.000000pt" height="900.000000pt" viewBox="0 0 900.000000 900.000000"
 preserveAspectRatio="xMidYMid meet">
<metadata>
Created by potrace 1.11, written by Peter Selinger 2001-2013
</metadata>
<g transform="translate(0.000000,900.000000) scale(0.100000,-0.100000)"
fill="#000000" stroke="none">
<path d="M1230 4839 c0 -2941 3 -3688 13 -3691 10 -3 497 -3 520 1 4 0 7 1361
7 3024 l1 3022 207 -211 c261 -266 875 -893 1018 -1041 60 -61 251 -257 424
-434 173 -176 346 -353 383 -393 38 -39 92 -94 119 -122 l50 -52 -46 -48
c-310 -319 -334 -904 -51 -1247 138 -167 315 -248 532 -242 125 3 155 8 240
40 92 35 150 72 218 140 146 143 210 348 183 583 -19 171 -100 400 -188 537
-11 17 -23 37 -26 45 -24 52 -223 304 -324 410 -35 36 -147 153 -249 260 -102
107 -235 244 -294 305 -343 349 -820 835 -913 932 -60 61 -254 259 -430 440
-177 180 -363 371 -414 423 -51 52 -250 256 -444 454 -193 197 -393 401 -443
454 l-93 97 0 -3686z m3134 -356 c82 -136 119 -223 139 -328 23 -121 9 -185
-46 -205 -62 -21 -120 -10 -160 32 -40 41 -81 171 -81 253 0 50 17 141 34 181
22 50 65 114 78 114 4 0 20 -21 36 -47z"/>
<path d="M7540 8289 c-124 -127 -261 -269 -305 -314 -44 -46 -183 -190 -310
-320 -126 -131 -261 -270 -299 -309 -60 -62 -422 -436 -606 -626 -36 -37 -173
-179 -305 -315 -342 -353 -355 -367 -612 -631 -127 -131 -268 -277 -313 -324
-45 -47 -102 -106 -126 -131 l-46 -46 128 -124 c69 -68 156 -152 191 -187 35
-34 68 -60 73 -57 5 3 51 49 102 102 51 52 129 132 173 178 134 138 558 575
635 655 131 136 523 542 605 625 147 152 522 539 614 635 l91 95 0 -3022 c0
-2408 3 -3022 13 -3025 6 -2 127 -4 267 -3 l255 1 3 1848 c1 1016 1 2676 0
3687 l-3 1840 -225 -232z"/>
</g>
</svg>
